<mxfile host="app.diagrams.net" agent="Mozilla/5.0 (Windows NT 10.0; Win64; x64) AppleWebKit/537.36 (KHTML, like Gecko) Chrome/124.0.0.0 YaBrowser/24.6.0.0 Safari/537.36" version="24.7.17">
  <diagram name="Страница — 1" id="4BpQXFm26ysMK4imXrAp">
    <mxGraphModel dx="1235" dy="1836" grid="1" gridSize="10" guides="1" tooltips="1" connect="1" arrows="1" fold="1" page="1" pageScale="1" pageWidth="827" pageHeight="1169" math="0" shadow="0">
      <root>
        <mxCell id="0" />
        <mxCell id="1" parent="0" />
        <mxCell id="mHPtdJQ6hgaOKIuCdoIB-60" value="" style="endArrow=none;html=1;rounded=0;entryX=0.5;entryY=1;entryDx=0;entryDy=0;exitX=0.5;exitY=0;exitDx=0;exitDy=0;" parent="1" edge="1">
          <mxGeometry width="50" height="50" relative="1" as="geometry">
            <mxPoint x="400" y="430" as="sourcePoint" />
            <mxPoint x="400" y="430" as="targetPoint" />
          </mxGeometry>
        </mxCell>
        <mxCell id="mHPtdJQ6hgaOKIuCdoIB-80" value="" style="rounded=1;whiteSpace=wrap;html=1;fillColor=#ffe6cc;strokeColor=#d79b00;" parent="1" vertex="1">
          <mxGeometry x="30" y="500" width="220" height="130" as="geometry" />
        </mxCell>
        <mxCell id="mHPtdJQ6hgaOKIuCdoIB-81" value="" style="endArrow=none;html=1;rounded=0;" parent="1" target="mHPtdJQ6hgaOKIuCdoIB-80" edge="1">
          <mxGeometry width="50" height="50" relative="1" as="geometry">
            <mxPoint x="30" y="550" as="sourcePoint" />
            <mxPoint x="80" y="500" as="targetPoint" />
            <Array as="points">
              <mxPoint x="250" y="550" />
            </Array>
          </mxGeometry>
        </mxCell>
        <mxCell id="mHPtdJQ6hgaOKIuCdoIB-82" value="&lt;font face=&quot;Times New Roman&quot;&gt;&lt;span style=&quot;font-size: 20px;&quot;&gt;ValueValidator&lt;/span&gt;&lt;/font&gt;" style="text;html=1;align=center;verticalAlign=middle;whiteSpace=wrap;rounded=0;" parent="1" vertex="1">
          <mxGeometry x="110" y="520" width="60" height="30" as="geometry" />
        </mxCell>
        <mxCell id="mHPtdJQ6hgaOKIuCdoIB-83" value="&lt;font style=&quot;font-size: 14px;&quot; color=&quot;#009900&quot; face=&quot;Times New Roman&quot;&gt;+&lt;/font&gt;" style="text;html=1;align=center;verticalAlign=middle;whiteSpace=wrap;rounded=0;" parent="1" vertex="1">
          <mxGeometry x="10" y="565" width="60" height="30" as="geometry" />
        </mxCell>
        <mxCell id="mHPtdJQ6hgaOKIuCdoIB-84" value="&lt;font face=&quot;Times New Roman&quot; color=&quot;#009900&quot;&gt;&lt;span style=&quot;font-size: 14px;&quot;&gt;&lt;u&gt;AssertStringOnLength(string, int, string)&lt;/u&gt;: void&lt;/span&gt;&lt;/font&gt;" style="text;html=1;align=center;verticalAlign=middle;whiteSpace=wrap;rounded=0;fontColor=#c56516;" parent="1" vertex="1">
          <mxGeometry x="67" y="570" width="146" height="30" as="geometry" />
        </mxCell>
        <mxCell id="mHPtdJQ6hgaOKIuCdoIB-85" value="" style="rounded=1;whiteSpace=wrap;html=1;fillColor=#d5e8d4;strokeColor=#82b366;" parent="1" vertex="1">
          <mxGeometry x="324" y="500" width="190" height="185" as="geometry" />
        </mxCell>
        <mxCell id="mHPtdJQ6hgaOKIuCdoIB-86" value="" style="endArrow=none;html=1;rounded=0;" parent="1" target="mHPtdJQ6hgaOKIuCdoIB-85" edge="1">
          <mxGeometry width="50" height="50" relative="1" as="geometry">
            <mxPoint x="324" y="555" as="sourcePoint" />
            <mxPoint x="374" y="505" as="targetPoint" />
            <Array as="points">
              <mxPoint x="514" y="555" />
            </Array>
          </mxGeometry>
        </mxCell>
        <mxCell id="mHPtdJQ6hgaOKIuCdoIB-87" value="&lt;font style=&quot;font-weight: normal; font-size: 20px;&quot; face=&quot;Times New Roman&quot;&gt;&quot;enumeration&quot;&lt;/font&gt;&lt;div style=&quot;font-size: 20px;&quot;&gt;&lt;font style=&quot;font-weight: normal; font-size: 20px;&quot; face=&quot;Times New Roman&quot;&gt;Category&lt;/font&gt;&lt;/div&gt;" style="text;html=1;align=center;verticalAlign=middle;whiteSpace=wrap;rounded=0;fontStyle=1;fontSize=15;" parent="1" vertex="1">
          <mxGeometry x="374" y="505" width="90" height="50" as="geometry" />
        </mxCell>
        <mxCell id="mHPtdJQ6hgaOKIuCdoIB-88" value="&lt;div style=&quot;font-size: 14px;&quot;&gt;&lt;font color=&quot;#ffb570&quot; style=&quot;font-size: 14px;&quot;&gt;&amp;nbsp;Electronic&lt;/font&gt;&lt;/div&gt;&lt;div style=&quot;font-size: 14px;&quot;&gt;&lt;span style=&quot;background-color: initial;&quot;&gt;&lt;font color=&quot;#ffb570&quot; style=&quot;font-size: 14px;&quot;&gt;Toys,&lt;/font&gt;&lt;/span&gt;&lt;/div&gt;&lt;div style=&quot;font-size: 14px;&quot;&gt;&lt;font color=&quot;#ffb570&quot; style=&quot;font-size: 14px;&quot;&gt;&amp;nbsp;Foods,&lt;/font&gt;&lt;/div&gt;&lt;div style=&quot;font-size: 14px;&quot;&gt;&lt;font color=&quot;#ffb570&quot; style=&quot;font-size: 14px;&quot;&gt;&amp;nbsp;Sport,&lt;/font&gt;&lt;/div&gt;&lt;div style=&quot;font-size: 14px;&quot;&gt;&lt;font color=&quot;#ffb570&quot; style=&quot;font-size: 14px;&quot;&gt;&amp;nbsp;Books,&lt;/font&gt;&lt;/div&gt;&lt;div style=&quot;font-size: 14px;&quot;&gt;&lt;font color=&quot;#ffb570&quot; style=&quot;font-size: 14px;&quot;&gt;&amp;nbsp;Travels,&lt;/font&gt;&lt;/div&gt;&lt;div style=&quot;font-size: 14px;&quot;&gt;&lt;font color=&quot;#ffb570&quot; style=&quot;font-size: 14px;&quot;&gt;&amp;nbsp;Clothes&lt;/font&gt;&lt;/div&gt;" style="text;html=1;align=center;verticalAlign=middle;whiteSpace=wrap;rounded=0;" parent="1" vertex="1">
          <mxGeometry x="324" y="565" width="190" height="120" as="geometry" />
        </mxCell>
        <mxCell id="3dHo6kwf9yd_WLhJWd4s-27" style="edgeStyle=orthogonalEdgeStyle;rounded=0;orthogonalLoop=1;jettySize=auto;html=1;exitX=0;exitY=0.5;exitDx=0;exitDy=0;entryX=0.5;entryY=0;entryDx=0;entryDy=0;dashed=1;" parent="1" source="mHPtdJQ6hgaOKIuCdoIB-89" target="mHPtdJQ6hgaOKIuCdoIB-80" edge="1">
          <mxGeometry relative="1" as="geometry" />
        </mxCell>
        <mxCell id="mHPtdJQ6hgaOKIuCdoIB-89" value="" style="rounded=1;whiteSpace=wrap;html=1;fillColor=#ffe6cc;strokeColor=#d79b00;" parent="1" vertex="1">
          <mxGeometry x="295" y="40" width="248" height="360" as="geometry" />
        </mxCell>
        <mxCell id="mHPtdJQ6hgaOKIuCdoIB-90" value="&lt;font style=&quot;font-size: 20px;&quot; face=&quot;Times New Roman&quot;&gt;Item&lt;/font&gt;" style="text;html=1;align=center;verticalAlign=middle;whiteSpace=wrap;rounded=0;" parent="1" vertex="1">
          <mxGeometry x="383" y="45" width="60" height="30" as="geometry" />
        </mxCell>
        <mxCell id="mHPtdJQ6hgaOKIuCdoIB-91" value="&lt;font face=&quot;Times New Roman&quot; style=&quot;font-size: 14px;&quot;&gt;_name: string&lt;/font&gt;" style="text;html=1;align=center;verticalAlign=middle;whiteSpace=wrap;rounded=0;fontColor=#c56516;" parent="1" vertex="1">
          <mxGeometry x="320.5" y="100" width="147.5" height="30" as="geometry" />
        </mxCell>
        <mxCell id="mHPtdJQ6hgaOKIuCdoIB-92" value="&lt;font face=&quot;Times New Roman&quot; style=&quot;font-size: 14px;&quot;&gt;_info: string&lt;/font&gt;" style="text;html=1;align=center;verticalAlign=middle;whiteSpace=wrap;rounded=0;fontColor=#c56516;" parent="1" vertex="1">
          <mxGeometry x="320.5" y="130" width="137.5" height="30" as="geometry" />
        </mxCell>
        <mxCell id="mHPtdJQ6hgaOKIuCdoIB-93" value="&lt;font face=&quot;Times New Roman&quot; style=&quot;font-size: 14px;&quot;&gt;_cost: double&lt;/font&gt;" style="text;html=1;align=center;verticalAlign=middle;whiteSpace=wrap;rounded=0;fontColor=#c56516;" parent="1" vertex="1">
          <mxGeometry x="320.5" y="160" width="142.5" height="30" as="geometry" />
        </mxCell>
        <mxCell id="mHPtdJQ6hgaOKIuCdoIB-94" value="&lt;font color=&quot;#c56516&quot; style=&quot;font-size: 14px;&quot; face=&quot;Times New Roman&quot;&gt;-&lt;/font&gt;" style="text;html=1;align=center;verticalAlign=middle;whiteSpace=wrap;rounded=0;" parent="1" vertex="1">
          <mxGeometry x="283" y="75" width="60" height="30" as="geometry" />
        </mxCell>
        <mxCell id="mHPtdJQ6hgaOKIuCdoIB-95" value="&lt;font color=&quot;#c56516&quot; style=&quot;font-size: 14px;&quot; face=&quot;Times New Roman&quot;&gt;-&lt;/font&gt;" style="text;html=1;align=center;verticalAlign=middle;whiteSpace=wrap;rounded=0;" parent="1" vertex="1">
          <mxGeometry x="283" y="135" width="60" height="30" as="geometry" />
        </mxCell>
        <mxCell id="mHPtdJQ6hgaOKIuCdoIB-96" value="&lt;font color=&quot;#c56516&quot; style=&quot;font-size: 14px;&quot; face=&quot;Times New Roman&quot;&gt;-&lt;/font&gt;" style="text;html=1;align=center;verticalAlign=middle;whiteSpace=wrap;rounded=0;" parent="1" vertex="1">
          <mxGeometry x="283" y="105" width="60" height="30" as="geometry" />
        </mxCell>
        <mxCell id="mHPtdJQ6hgaOKIuCdoIB-97" value="&lt;font color=&quot;#c56516&quot; style=&quot;font-size: 14px;&quot; face=&quot;Times New Roman&quot;&gt;-&lt;/font&gt;" style="text;html=1;align=center;verticalAlign=middle;whiteSpace=wrap;rounded=0;" parent="1" vertex="1">
          <mxGeometry x="283" y="165" width="60" height="30" as="geometry" />
        </mxCell>
        <mxCell id="mHPtdJQ6hgaOKIuCdoIB-98" value="&lt;font size=&quot;1&quot; face=&quot;Times New Roman&quot; style=&quot;&quot;&gt;&lt;u style=&quot;font-size: 14px;&quot;&gt;_id: int&lt;/u&gt;&lt;/font&gt;" style="text;html=1;align=center;verticalAlign=middle;whiteSpace=wrap;rounded=0;fontColor=#c56516;" parent="1" vertex="1">
          <mxGeometry x="307" y="75" width="146" height="30" as="geometry" />
        </mxCell>
        <mxCell id="mHPtdJQ6hgaOKIuCdoIB-99" value="&lt;font color=&quot;#009900&quot; face=&quot;Times New Roman&quot; style=&quot;font-size: 14px;&quot;&gt;ID {get; set;}(): int&lt;/font&gt;" style="text;html=1;align=center;verticalAlign=middle;whiteSpace=wrap;rounded=0;fontColor=#c56516;" parent="1" vertex="1">
          <mxGeometry x="317" y="230" width="146" height="30" as="geometry" />
        </mxCell>
        <mxCell id="mHPtdJQ6hgaOKIuCdoIB-100" value="&lt;font color=&quot;#009900&quot; face=&quot;Times New Roman&quot; style=&quot;font-size: 14px;&quot;&gt;Name {get; set;}(): string&lt;/font&gt;" style="text;html=1;align=center;verticalAlign=middle;whiteSpace=wrap;rounded=0;fontColor=#c56516;" parent="1" vertex="1">
          <mxGeometry x="307" y="260" width="196" height="30" as="geometry" />
        </mxCell>
        <mxCell id="mHPtdJQ6hgaOKIuCdoIB-101" value="&lt;font color=&quot;#009900&quot; face=&quot;Times New Roman&quot; style=&quot;font-size: 14px;&quot;&gt;Info {get; set;}(): string&lt;/font&gt;" style="text;html=1;align=center;verticalAlign=middle;whiteSpace=wrap;rounded=0;fontColor=#c56516;" parent="1" vertex="1">
          <mxGeometry x="311.5" y="287" width="184" height="30" as="geometry" />
        </mxCell>
        <mxCell id="mHPtdJQ6hgaOKIuCdoIB-102" value="&lt;font color=&quot;#009900&quot; face=&quot;Times New Roman&quot; style=&quot;font-size: 14px;&quot;&gt;Cost {get; set;}(): double&lt;/font&gt;" style="text;html=1;align=center;verticalAlign=middle;whiteSpace=wrap;rounded=0;fontColor=#c56516;" parent="1" vertex="1">
          <mxGeometry x="320.5" y="320" width="175" height="30" as="geometry" />
        </mxCell>
        <mxCell id="mHPtdJQ6hgaOKIuCdoIB-103" value="&lt;font style=&quot;font-size: 14px;&quot; color=&quot;#009900&quot; face=&quot;Times New Roman&quot;&gt;+&lt;/font&gt;" style="text;html=1;align=center;verticalAlign=middle;whiteSpace=wrap;rounded=0;" parent="1" vertex="1">
          <mxGeometry x="283" y="257" width="60" height="30" as="geometry" />
        </mxCell>
        <mxCell id="mHPtdJQ6hgaOKIuCdoIB-104" value="&lt;font style=&quot;font-size: 14px;&quot; color=&quot;#009900&quot; face=&quot;Times New Roman&quot;&gt;+&lt;/font&gt;" style="text;html=1;align=center;verticalAlign=middle;whiteSpace=wrap;rounded=0;" parent="1" vertex="1">
          <mxGeometry x="283" y="285" width="60" height="30" as="geometry" />
        </mxCell>
        <mxCell id="mHPtdJQ6hgaOKIuCdoIB-105" value="&lt;font style=&quot;font-size: 14px;&quot; color=&quot;#009900&quot; face=&quot;Times New Roman&quot;&gt;+&lt;/font&gt;" style="text;html=1;align=center;verticalAlign=middle;whiteSpace=wrap;rounded=0;" parent="1" vertex="1">
          <mxGeometry x="283" y="315" width="60" height="30" as="geometry" />
        </mxCell>
        <mxCell id="mHPtdJQ6hgaOKIuCdoIB-106" value="&lt;font style=&quot;font-size: 14px;&quot; color=&quot;#009900&quot; face=&quot;Times New Roman&quot;&gt;+&lt;/font&gt;" style="text;html=1;align=center;verticalAlign=middle;whiteSpace=wrap;rounded=0;" parent="1" vertex="1">
          <mxGeometry x="283" y="350" width="60" height="30" as="geometry" />
        </mxCell>
        <mxCell id="mHPtdJQ6hgaOKIuCdoIB-107" value="&lt;font style=&quot;font-size: 14px;&quot; face=&quot;Times New Roman&quot; color=&quot;#009900&quot;&gt;Item(string, string, double, Category): void&lt;/font&gt;" style="text;html=1;align=center;verticalAlign=middle;whiteSpace=wrap;rounded=0;fontColor=#c56516;" parent="1" vertex="1">
          <mxGeometry x="311.5" y="360" width="228" height="30" as="geometry" />
        </mxCell>
        <mxCell id="mHPtdJQ6hgaOKIuCdoIB-109" value="" style="endArrow=none;html=1;rounded=0;" parent="1" edge="1">
          <mxGeometry width="50" height="50" relative="1" as="geometry">
            <mxPoint x="293" y="75" as="sourcePoint" />
            <mxPoint x="543" y="74.5" as="targetPoint" />
            <Array as="points">
              <mxPoint x="543" y="74.5" />
            </Array>
          </mxGeometry>
        </mxCell>
        <mxCell id="mHPtdJQ6hgaOKIuCdoIB-110" value="" style="endArrow=none;html=1;rounded=0;" parent="1" edge="1">
          <mxGeometry width="50" height="50" relative="1" as="geometry">
            <mxPoint x="295" y="195.5" as="sourcePoint" />
            <mxPoint x="545" y="195" as="targetPoint" />
            <Array as="points">
              <mxPoint x="545" y="195" />
            </Array>
          </mxGeometry>
        </mxCell>
        <mxCell id="mHPtdJQ6hgaOKIuCdoIB-115" value="&lt;font color=&quot;#009900&quot; face=&quot;Times New Roman&quot; style=&quot;font-size: 14px;&quot;&gt;Category{get; set;}(): Category&lt;/font&gt;" style="text;html=1;align=center;verticalAlign=middle;whiteSpace=wrap;rounded=0;fontColor=#c56516;" parent="1" vertex="1">
          <mxGeometry x="315.88" y="200" width="156.75" height="30" as="geometry" />
        </mxCell>
        <mxCell id="mHPtdJQ6hgaOKIuCdoIB-116" value="&lt;font style=&quot;font-size: 14px;&quot; color=&quot;#009900&quot; face=&quot;Times New Roman&quot;&gt;+&lt;/font&gt;" style="text;html=1;align=center;verticalAlign=middle;whiteSpace=wrap;rounded=0;" parent="1" vertex="1">
          <mxGeometry x="283.25" y="200" width="60" height="30" as="geometry" />
        </mxCell>
        <mxCell id="mHPtdJQ6hgaOKIuCdoIB-117" value="&lt;font style=&quot;font-size: 14px;&quot; color=&quot;#009900&quot; face=&quot;Times New Roman&quot;&gt;+&lt;/font&gt;" style="text;html=1;align=center;verticalAlign=middle;whiteSpace=wrap;rounded=0;" parent="1" vertex="1">
          <mxGeometry x="283" y="230" width="60" height="30" as="geometry" />
        </mxCell>
        <mxCell id="mHPtdJQ6hgaOKIuCdoIB-119" value="" style="endArrow=none;html=1;rounded=0;entryX=0.5;entryY=1;entryDx=0;entryDy=0;exitX=0.5;exitY=0;exitDx=0;exitDy=0;" parent="1" target="mHPtdJQ6hgaOKIuCdoIB-89" edge="1">
          <mxGeometry width="50" height="50" relative="1" as="geometry">
            <mxPoint x="419" y="400" as="sourcePoint" />
            <mxPoint x="470" y="450" as="targetPoint" />
          </mxGeometry>
        </mxCell>
        <mxCell id="mHPtdJQ6hgaOKIuCdoIB-127" value="" style="rounded=1;whiteSpace=wrap;html=1;fillColor=#ffe6cc;strokeColor=#d79b00;" parent="1" vertex="1">
          <mxGeometry x="750" y="55" width="248" height="465" as="geometry" />
        </mxCell>
        <mxCell id="mHPtdJQ6hgaOKIuCdoIB-128" value="&lt;font face=&quot;Times New Roman&quot; style=&quot;font-size: 14px;&quot;&gt;_id: int&lt;/font&gt;" style="text;html=1;align=center;verticalAlign=middle;whiteSpace=wrap;rounded=0;fontColor=#c56516;" parent="1" vertex="1">
          <mxGeometry x="760.5" y="90" width="139.5" height="30" as="geometry" />
        </mxCell>
        <mxCell id="mHPtdJQ6hgaOKIuCdoIB-129" value="&lt;font face=&quot;Times New Roman&quot; style=&quot;font-size: 14px;&quot;&gt;_fullname: string&lt;/font&gt;" style="text;html=1;align=center;verticalAlign=middle;whiteSpace=wrap;rounded=0;fontColor=#c56516;" parent="1" vertex="1">
          <mxGeometry x="787.5" y="119" width="137.5" height="30" as="geometry" />
        </mxCell>
        <mxCell id="mHPtdJQ6hgaOKIuCdoIB-130" value="&lt;font face=&quot;Times New Roman&quot; style=&quot;font-size: 14px;&quot;&gt;_address: Address&lt;/font&gt;" style="text;html=1;align=center;verticalAlign=middle;whiteSpace=wrap;rounded=0;fontColor=#c56516;" parent="1" vertex="1">
          <mxGeometry x="782.5" y="149" width="142.5" height="30" as="geometry" />
        </mxCell>
        <mxCell id="mHPtdJQ6hgaOKIuCdoIB-131" value="&lt;font color=&quot;#c56516&quot; style=&quot;font-size: 14px;&quot; face=&quot;Times New Roman&quot;&gt;-&lt;/font&gt;" style="text;html=1;align=center;verticalAlign=middle;whiteSpace=wrap;rounded=0;" parent="1" vertex="1">
          <mxGeometry x="740" y="119" width="60" height="30" as="geometry" />
        </mxCell>
        <mxCell id="mHPtdJQ6hgaOKIuCdoIB-132" value="&lt;font color=&quot;#c56516&quot; style=&quot;font-size: 14px;&quot; face=&quot;Times New Roman&quot;&gt;-&lt;/font&gt;" style="text;html=1;align=center;verticalAlign=middle;whiteSpace=wrap;rounded=0;" parent="1" vertex="1">
          <mxGeometry x="740" y="89" width="60" height="30" as="geometry" />
        </mxCell>
        <mxCell id="mHPtdJQ6hgaOKIuCdoIB-133" value="&lt;font color=&quot;#c56516&quot; style=&quot;font-size: 14px;&quot; face=&quot;Times New Roman&quot;&gt;-&lt;/font&gt;" style="text;html=1;align=center;verticalAlign=middle;whiteSpace=wrap;rounded=0;" parent="1" vertex="1">
          <mxGeometry x="740" y="149" width="60" height="30" as="geometry" />
        </mxCell>
        <mxCell id="mHPtdJQ6hgaOKIuCdoIB-134" value="" style="endArrow=none;html=1;rounded=0;" parent="1" edge="1">
          <mxGeometry width="50" height="50" relative="1" as="geometry">
            <mxPoint x="750" y="88.5" as="sourcePoint" />
            <mxPoint x="1000" y="88" as="targetPoint" />
            <Array as="points">
              <mxPoint x="1000" y="88" />
            </Array>
          </mxGeometry>
        </mxCell>
        <mxCell id="mHPtdJQ6hgaOKIuCdoIB-135" value="&lt;font face=&quot;Times New Roman&quot;&gt;&lt;span style=&quot;font-size: 20px;&quot;&gt;Customer&lt;/span&gt;&lt;/font&gt;" style="text;html=1;align=center;verticalAlign=middle;whiteSpace=wrap;rounded=0;" parent="1" vertex="1">
          <mxGeometry x="844" y="60" width="60" height="30" as="geometry" />
        </mxCell>
        <mxCell id="mHPtdJQ6hgaOKIuCdoIB-136" value="" style="endArrow=none;html=1;rounded=0;" parent="1" edge="1">
          <mxGeometry width="50" height="50" relative="1" as="geometry">
            <mxPoint x="747.25" y="271.91" as="sourcePoint" />
            <mxPoint x="997.25" y="271.41" as="targetPoint" />
            <Array as="points">
              <mxPoint x="997.25" y="271.41" />
            </Array>
          </mxGeometry>
        </mxCell>
        <mxCell id="mHPtdJQ6hgaOKIuCdoIB-137" value="&lt;font color=&quot;#009900&quot; face=&quot;Times New Roman&quot; style=&quot;font-size: 14px;&quot;&gt;FullName {get; set;}(): string&lt;/font&gt;" style="text;html=1;align=center;verticalAlign=middle;whiteSpace=wrap;rounded=0;fontColor=#c56516;" parent="1" vertex="1">
          <mxGeometry x="772.5" y="310" width="196" height="30" as="geometry" />
        </mxCell>
        <mxCell id="mHPtdJQ6hgaOKIuCdoIB-138" value="&lt;font color=&quot;#009900&quot; face=&quot;Times New Roman&quot; style=&quot;font-size: 14px;&quot;&gt;CustomerAddress {get; set;}(): Address&lt;/font&gt;" style="text;html=1;align=center;verticalAlign=middle;whiteSpace=wrap;rounded=0;fontColor=#c56516;" parent="1" vertex="1">
          <mxGeometry x="767.75" y="350" width="209" height="30" as="geometry" />
        </mxCell>
        <mxCell id="mHPtdJQ6hgaOKIuCdoIB-139" value="&lt;font style=&quot;font-size: 14px;&quot; color=&quot;#009900&quot; face=&quot;Times New Roman&quot;&gt;+&lt;/font&gt;" style="text;html=1;align=center;verticalAlign=middle;whiteSpace=wrap;rounded=0;" parent="1" vertex="1">
          <mxGeometry x="732.75" y="310" width="60" height="30" as="geometry" />
        </mxCell>
        <mxCell id="mHPtdJQ6hgaOKIuCdoIB-140" value="&lt;font style=&quot;font-size: 14px;&quot; color=&quot;#009900&quot; face=&quot;Times New Roman&quot;&gt;+&lt;/font&gt;" style="text;html=1;align=center;verticalAlign=middle;whiteSpace=wrap;rounded=0;" parent="1" vertex="1">
          <mxGeometry x="732.75" y="345" width="60" height="30" as="geometry" />
        </mxCell>
        <mxCell id="mHPtdJQ6hgaOKIuCdoIB-141" value="&lt;font color=&quot;#009900&quot; face=&quot;Times New Roman&quot; style=&quot;font-size: 14px;&quot;&gt;ID {get; set;}(): int&lt;/font&gt;" style="text;html=1;align=center;verticalAlign=middle;whiteSpace=wrap;rounded=0;fontColor=#c56516;" parent="1" vertex="1">
          <mxGeometry x="770" y="280" width="146" height="30" as="geometry" />
        </mxCell>
        <mxCell id="mHPtdJQ6hgaOKIuCdoIB-142" value="&lt;font style=&quot;font-size: 14px;&quot; color=&quot;#009900&quot; face=&quot;Times New Roman&quot;&gt;+&lt;/font&gt;" style="text;html=1;align=center;verticalAlign=middle;whiteSpace=wrap;rounded=0;" parent="1" vertex="1">
          <mxGeometry x="732.75" y="280" width="60" height="30" as="geometry" />
        </mxCell>
        <mxCell id="mHPtdJQ6hgaOKIuCdoIB-143" value="&lt;font style=&quot;font-size: 14px;&quot; face=&quot;Times New Roman&quot; color=&quot;#009900&quot;&gt;Customer(string, Address): void&lt;/font&gt;" style="text;html=1;align=center;verticalAlign=middle;whiteSpace=wrap;rounded=0;fontColor=#c56516;" parent="1" vertex="1">
          <mxGeometry x="742.25" y="475" width="260" height="30" as="geometry" />
        </mxCell>
        <mxCell id="mHPtdJQ6hgaOKIuCdoIB-144" value="&lt;font style=&quot;font-size: 14px;&quot; color=&quot;#009900&quot; face=&quot;Times New Roman&quot;&gt;+&lt;/font&gt;" style="text;html=1;align=center;verticalAlign=middle;whiteSpace=wrap;rounded=0;" parent="1" vertex="1">
          <mxGeometry x="732.75" y="450" width="60" height="30" as="geometry" />
        </mxCell>
        <mxCell id="mHPtdJQ6hgaOKIuCdoIB-148" value="" style="rounded=1;whiteSpace=wrap;html=1;fillColor=#ffe6cc;strokeColor=#d79b00;" parent="1" vertex="1">
          <mxGeometry x="303.75" y="-410" width="248" height="240" as="geometry" />
        </mxCell>
        <mxCell id="mHPtdJQ6hgaOKIuCdoIB-149" value="&lt;font size=&quot;1&quot; face=&quot;Times New Roman&quot; style=&quot;&quot;&gt;&lt;span style=&quot;font-size: 14px;&quot;&gt;_items: List&amp;lt;Item&amp;gt;&lt;/span&gt;&lt;/font&gt;" style="text;html=1;align=center;verticalAlign=middle;whiteSpace=wrap;rounded=0;fontColor=#c56516;" parent="1" vertex="1">
          <mxGeometry x="343.25" y="-370" width="146" height="30" as="geometry" />
        </mxCell>
        <mxCell id="mHPtdJQ6hgaOKIuCdoIB-150" value="&lt;font size=&quot;1&quot; face=&quot;Times New Roman&quot; style=&quot;&quot;&gt;&lt;span style=&quot;font-size: 14px;&quot;&gt;_customers: List&amp;lt;Customer&amp;gt;&lt;/span&gt;&lt;/font&gt;" style="text;html=1;align=center;verticalAlign=middle;whiteSpace=wrap;rounded=0;fontColor=#c56516;" parent="1" vertex="1">
          <mxGeometry x="357.25" y="-340" width="173" height="30" as="geometry" />
        </mxCell>
        <mxCell id="mHPtdJQ6hgaOKIuCdoIB-151" value="&lt;font color=&quot;#c56516&quot; style=&quot;font-size: 14px;&quot; face=&quot;Times New Roman&quot;&gt;-&lt;/font&gt;" style="text;html=1;align=center;verticalAlign=middle;whiteSpace=wrap;rounded=0;" parent="1" vertex="1">
          <mxGeometry x="297.25" y="-370" width="60" height="30" as="geometry" />
        </mxCell>
        <mxCell id="mHPtdJQ6hgaOKIuCdoIB-152" value="&lt;font color=&quot;#c56516&quot; style=&quot;font-size: 14px;&quot; face=&quot;Times New Roman&quot;&gt;-&lt;/font&gt;" style="text;html=1;align=center;verticalAlign=middle;whiteSpace=wrap;rounded=0;" parent="1" vertex="1">
          <mxGeometry x="297.25" y="-340" width="60" height="30" as="geometry" />
        </mxCell>
        <mxCell id="mHPtdJQ6hgaOKIuCdoIB-153" value="" style="endArrow=none;html=1;rounded=0;" parent="1" edge="1">
          <mxGeometry width="50" height="50" relative="1" as="geometry">
            <mxPoint x="303.75" y="-370.5" as="sourcePoint" />
            <mxPoint x="553.75" y="-371" as="targetPoint" />
            <Array as="points" />
          </mxGeometry>
        </mxCell>
        <mxCell id="mHPtdJQ6hgaOKIuCdoIB-154" value="&lt;font face=&quot;Times New Roman&quot;&gt;&lt;span style=&quot;font-size: 20px;&quot;&gt;Store&lt;/span&gt;&lt;/font&gt;" style="text;html=1;align=center;verticalAlign=middle;whiteSpace=wrap;rounded=0;" parent="1" vertex="1">
          <mxGeometry x="397.75" y="-400" width="60" height="30" as="geometry" />
        </mxCell>
        <mxCell id="mHPtdJQ6hgaOKIuCdoIB-155" value="" style="endArrow=none;html=1;rounded=0;" parent="1" edge="1">
          <mxGeometry width="50" height="50" relative="1" as="geometry">
            <mxPoint x="303.75" y="-299.5" as="sourcePoint" />
            <mxPoint x="553.75" y="-300" as="targetPoint" />
            <Array as="points" />
          </mxGeometry>
        </mxCell>
        <mxCell id="mHPtdJQ6hgaOKIuCdoIB-156" value="&lt;font color=&quot;#009900&quot; face=&quot;Times New Roman&quot; style=&quot;font-size: 14px;&quot;&gt;Items{get; set;}(): List&amp;lt;Item&amp;gt;&lt;/font&gt;" style="text;html=1;align=center;verticalAlign=middle;whiteSpace=wrap;rounded=0;fontColor=#c56516;" parent="1" vertex="1">
          <mxGeometry x="337.88" y="-290" width="156.75" height="30" as="geometry" />
        </mxCell>
        <mxCell id="mHPtdJQ6hgaOKIuCdoIB-157" value="&lt;font color=&quot;#009900&quot; face=&quot;Times New Roman&quot; style=&quot;font-size: 14px;&quot;&gt;Customers{get; set;}(): List&amp;lt;Customer&amp;gt;&lt;/font&gt;" style="text;html=1;align=center;verticalAlign=middle;whiteSpace=wrap;rounded=0;fontColor=#c56516;" parent="1" vertex="1">
          <mxGeometry x="349.37" y="-250" width="156.75" height="30" as="geometry" />
        </mxCell>
        <mxCell id="mHPtdJQ6hgaOKIuCdoIB-158" value="&lt;font style=&quot;font-size: 14px;&quot; color=&quot;#009900&quot; face=&quot;Times New Roman&quot;&gt;+&lt;/font&gt;" style="text;html=1;align=center;verticalAlign=middle;whiteSpace=wrap;rounded=0;" parent="1" vertex="1">
          <mxGeometry x="299.13" y="-295" width="60" height="30" as="geometry" />
        </mxCell>
        <mxCell id="mHPtdJQ6hgaOKIuCdoIB-159" value="&lt;font style=&quot;font-size: 14px;&quot; color=&quot;#009900&quot; face=&quot;Times New Roman&quot;&gt;+&lt;/font&gt;" style="text;html=1;align=center;verticalAlign=middle;whiteSpace=wrap;rounded=0;" parent="1" vertex="1">
          <mxGeometry x="299.13" y="-250" width="60" height="30" as="geometry" />
        </mxCell>
        <mxCell id="mHPtdJQ6hgaOKIuCdoIB-160" value="&lt;font style=&quot;font-size: 14px;&quot; face=&quot;Times New Roman&quot; color=&quot;#009900&quot;&gt;Store(): void&lt;/font&gt;" style="text;html=1;align=center;verticalAlign=middle;whiteSpace=wrap;rounded=0;fontColor=#c56516;" parent="1" vertex="1">
          <mxGeometry x="313.74" y="-210" width="228" height="30" as="geometry" />
        </mxCell>
        <mxCell id="mHPtdJQ6hgaOKIuCdoIB-161" value="&lt;font style=&quot;font-size: 14px;&quot; color=&quot;#009900&quot; face=&quot;Times New Roman&quot;&gt;+&lt;/font&gt;" style="text;html=1;align=center;verticalAlign=middle;whiteSpace=wrap;rounded=0;" parent="1" vertex="1">
          <mxGeometry x="299.13" y="-210" width="60" height="30" as="geometry" />
        </mxCell>
        <mxCell id="mHPtdJQ6hgaOKIuCdoIB-163" value="" style="endArrow=none;html=1;rounded=0;exitX=0.544;exitY=0;exitDx=0;exitDy=0;exitPerimeter=0;" parent="1" edge="1">
          <mxGeometry width="50" height="50" relative="1" as="geometry">
            <mxPoint x="428.6300000000001" y="-170" as="sourcePoint" />
            <mxPoint x="430" y="-170" as="targetPoint" />
          </mxGeometry>
        </mxCell>
        <mxCell id="mHPtdJQ6hgaOKIuCdoIB-169" value="" style="rounded=1;whiteSpace=wrap;html=1;fillColor=#ffe6cc;strokeColor=#d79b00;" parent="1" vertex="1">
          <mxGeometry x="1116" y="50" width="248" height="470" as="geometry" />
        </mxCell>
        <mxCell id="mHPtdJQ6hgaOKIuCdoIB-170" value="&lt;font face=&quot;Times New Roman&quot;&gt;&lt;span style=&quot;font-size: 20px;&quot;&gt;Address&lt;/span&gt;&lt;/font&gt;" style="text;html=1;align=center;verticalAlign=middle;whiteSpace=wrap;rounded=0;" parent="1" vertex="1">
          <mxGeometry x="1210" y="55" width="60" height="30" as="geometry" />
        </mxCell>
        <mxCell id="mHPtdJQ6hgaOKIuCdoIB-171" value="" style="endArrow=none;html=1;rounded=0;" parent="1" edge="1">
          <mxGeometry width="50" height="50" relative="1" as="geometry">
            <mxPoint x="1116" y="85.5" as="sourcePoint" />
            <mxPoint x="1366" y="85" as="targetPoint" />
            <Array as="points">
              <mxPoint x="1366" y="85" />
            </Array>
          </mxGeometry>
        </mxCell>
        <mxCell id="mHPtdJQ6hgaOKIuCdoIB-172" value="&lt;font face=&quot;Times New Roman&quot; style=&quot;font-size: 14px;&quot;&gt;_index: in&lt;/font&gt;&lt;span style=&quot;font-size: 14px; font-family: &amp;quot;Times New Roman&amp;quot;; background-color: initial;&quot;&gt;t&lt;/span&gt;" style="text;html=1;align=center;verticalAlign=middle;whiteSpace=wrap;rounded=0;fontColor=#c56516;" parent="1" vertex="1">
          <mxGeometry x="1116" y="85" width="130" height="30" as="geometry" />
        </mxCell>
        <mxCell id="mHPtdJQ6hgaOKIuCdoIB-173" value="&lt;font face=&quot;Times New Roman&quot; style=&quot;font-size: 14px;&quot;&gt;_country: string&lt;/font&gt;" style="text;html=1;align=center;verticalAlign=middle;whiteSpace=wrap;rounded=0;fontColor=#c56516;" parent="1" vertex="1">
          <mxGeometry x="1126" y="115" width="139.5" height="30" as="geometry" />
        </mxCell>
        <mxCell id="mHPtdJQ6hgaOKIuCdoIB-174" value="&lt;font face=&quot;Times New Roman&quot; style=&quot;font-size: 14px;&quot;&gt;_city: string&lt;/font&gt;" style="text;html=1;align=center;verticalAlign=middle;whiteSpace=wrap;rounded=0;fontColor=#c56516;" parent="1" vertex="1">
          <mxGeometry x="1116" y="145" width="139.5" height="30" as="geometry" />
        </mxCell>
        <mxCell id="mHPtdJQ6hgaOKIuCdoIB-175" value="&lt;font face=&quot;Times New Roman&quot; style=&quot;font-size: 14px;&quot;&gt;_street: string&lt;/font&gt;" style="text;html=1;align=center;verticalAlign=middle;whiteSpace=wrap;rounded=0;fontColor=#c56516;" parent="1" vertex="1">
          <mxGeometry x="1126" y="175" width="130" height="30" as="geometry" />
        </mxCell>
        <mxCell id="mHPtdJQ6hgaOKIuCdoIB-177" value="&lt;font face=&quot;Times New Roman&quot; style=&quot;font-size: 14px;&quot;&gt;_building: string&lt;/font&gt;" style="text;html=1;align=center;verticalAlign=middle;whiteSpace=wrap;rounded=0;fontColor=#c56516;" parent="1" vertex="1">
          <mxGeometry x="1130.5" y="205" width="135.5" height="30" as="geometry" />
        </mxCell>
        <mxCell id="mHPtdJQ6hgaOKIuCdoIB-178" value="&lt;font face=&quot;Times New Roman&quot; style=&quot;font-size: 14px;&quot;&gt;_apartment: string&lt;/font&gt;" style="text;html=1;align=center;verticalAlign=middle;whiteSpace=wrap;rounded=0;fontColor=#c56516;" parent="1" vertex="1">
          <mxGeometry x="1134" y="235" width="142" height="30" as="geometry" />
        </mxCell>
        <mxCell id="mHPtdJQ6hgaOKIuCdoIB-179" value="&lt;font color=&quot;#c56516&quot; style=&quot;font-size: 14px;&quot; face=&quot;Times New Roman&quot;&gt;-&lt;/font&gt;" style="text;html=1;align=center;verticalAlign=middle;whiteSpace=wrap;rounded=0;" parent="1" vertex="1">
          <mxGeometry x="1106" y="85" width="60" height="30" as="geometry" />
        </mxCell>
        <mxCell id="mHPtdJQ6hgaOKIuCdoIB-180" value="&lt;font color=&quot;#c56516&quot; style=&quot;font-size: 14px;&quot; face=&quot;Times New Roman&quot;&gt;-&lt;/font&gt;" style="text;html=1;align=center;verticalAlign=middle;whiteSpace=wrap;rounded=0;" parent="1" vertex="1">
          <mxGeometry x="1106" y="115" width="60" height="30" as="geometry" />
        </mxCell>
        <mxCell id="mHPtdJQ6hgaOKIuCdoIB-181" value="&lt;font color=&quot;#c56516&quot; style=&quot;font-size: 14px;&quot; face=&quot;Times New Roman&quot;&gt;-&lt;/font&gt;" style="text;html=1;align=center;verticalAlign=middle;whiteSpace=wrap;rounded=0;" parent="1" vertex="1">
          <mxGeometry x="1106" y="149" width="60" height="30" as="geometry" />
        </mxCell>
        <mxCell id="mHPtdJQ6hgaOKIuCdoIB-182" value="&lt;font color=&quot;#c56516&quot; style=&quot;font-size: 14px;&quot; face=&quot;Times New Roman&quot;&gt;-&lt;/font&gt;" style="text;html=1;align=center;verticalAlign=middle;whiteSpace=wrap;rounded=0;" parent="1" vertex="1">
          <mxGeometry x="1106" y="175" width="60" height="30" as="geometry" />
        </mxCell>
        <mxCell id="mHPtdJQ6hgaOKIuCdoIB-183" value="&lt;font color=&quot;#c56516&quot; style=&quot;font-size: 14px;&quot; face=&quot;Times New Roman&quot;&gt;-&lt;/font&gt;" style="text;html=1;align=center;verticalAlign=middle;whiteSpace=wrap;rounded=0;" parent="1" vertex="1">
          <mxGeometry x="1106" y="205" width="60" height="30" as="geometry" />
        </mxCell>
        <mxCell id="mHPtdJQ6hgaOKIuCdoIB-184" value="&lt;font color=&quot;#c56516&quot; style=&quot;font-size: 14px;&quot; face=&quot;Times New Roman&quot;&gt;-&lt;/font&gt;" style="text;html=1;align=center;verticalAlign=middle;whiteSpace=wrap;rounded=0;" parent="1" vertex="1">
          <mxGeometry x="1106" y="235" width="60" height="30" as="geometry" />
        </mxCell>
        <mxCell id="mHPtdJQ6hgaOKIuCdoIB-185" value="" style="endArrow=none;html=1;rounded=0;" parent="1" edge="1">
          <mxGeometry width="50" height="50" relative="1" as="geometry">
            <mxPoint x="1116" y="269.5" as="sourcePoint" />
            <mxPoint x="1366" y="269" as="targetPoint" />
            <Array as="points">
              <mxPoint x="1366" y="269" />
            </Array>
          </mxGeometry>
        </mxCell>
        <mxCell id="mHPtdJQ6hgaOKIuCdoIB-186" value="&lt;font color=&quot;#009900&quot; face=&quot;Times New Roman&quot; style=&quot;font-size: 14px;&quot;&gt;Index {get; set;}(): int&lt;/font&gt;" style="text;html=1;align=center;verticalAlign=middle;whiteSpace=wrap;rounded=0;fontColor=#c56516;" parent="1" vertex="1">
          <mxGeometry x="1146" y="280" width="146" height="30" as="geometry" />
        </mxCell>
        <mxCell id="mHPtdJQ6hgaOKIuCdoIB-187" value="&lt;font color=&quot;#009900&quot; face=&quot;Times New Roman&quot; style=&quot;font-size: 14px;&quot;&gt;Country {get; set;}(): string&lt;/font&gt;" style="text;html=1;align=center;verticalAlign=middle;whiteSpace=wrap;rounded=0;fontColor=#c56516;" parent="1" vertex="1">
          <mxGeometry x="1146" y="310" width="170" height="30" as="geometry" />
        </mxCell>
        <mxCell id="mHPtdJQ6hgaOKIuCdoIB-188" value="&lt;font color=&quot;#009900&quot; face=&quot;Times New Roman&quot; style=&quot;font-size: 14px;&quot;&gt;City{get; set;}(): string&lt;/font&gt;" style="text;html=1;align=center;verticalAlign=middle;whiteSpace=wrap;rounded=0;fontColor=#c56516;" parent="1" vertex="1">
          <mxGeometry x="1146" y="345" width="146" height="30" as="geometry" />
        </mxCell>
        <mxCell id="mHPtdJQ6hgaOKIuCdoIB-189" value="&lt;font color=&quot;#009900&quot; face=&quot;Times New Roman&quot; style=&quot;font-size: 14px;&quot;&gt;Street {get; set;}(): string&lt;/font&gt;" style="text;html=1;align=center;verticalAlign=middle;whiteSpace=wrap;rounded=0;fontColor=#c56516;" parent="1" vertex="1">
          <mxGeometry x="1158" y="380" width="146" height="30" as="geometry" />
        </mxCell>
        <mxCell id="mHPtdJQ6hgaOKIuCdoIB-190" value="&lt;font color=&quot;#009900&quot; face=&quot;Times New Roman&quot; style=&quot;font-size: 14px;&quot;&gt;Building {get; set;}(): string&lt;/font&gt;" style="text;html=1;align=center;verticalAlign=middle;whiteSpace=wrap;rounded=0;fontColor=#c56516;" parent="1" vertex="1">
          <mxGeometry x="1156" y="410" width="165" height="30" as="geometry" />
        </mxCell>
        <mxCell id="mHPtdJQ6hgaOKIuCdoIB-191" value="&lt;font color=&quot;#009900&quot; face=&quot;Times New Roman&quot; style=&quot;font-size: 14px;&quot;&gt;Apartment {get; set;}(): string&lt;/font&gt;" style="text;html=1;align=center;verticalAlign=middle;whiteSpace=wrap;rounded=0;fontColor=#c56516;" parent="1" vertex="1">
          <mxGeometry x="1156" y="440" width="175" height="30" as="geometry" />
        </mxCell>
        <mxCell id="mHPtdJQ6hgaOKIuCdoIB-192" value="&lt;font style=&quot;font-size: 14px;&quot; color=&quot;#009900&quot; face=&quot;Times New Roman&quot;&gt;+&lt;/font&gt;" style="text;html=1;align=center;verticalAlign=middle;whiteSpace=wrap;rounded=0;" parent="1" vertex="1">
          <mxGeometry x="1106" y="280" width="60" height="30" as="geometry" />
        </mxCell>
        <mxCell id="mHPtdJQ6hgaOKIuCdoIB-193" value="&lt;font style=&quot;font-size: 14px;&quot; color=&quot;#009900&quot; face=&quot;Times New Roman&quot;&gt;+&lt;/font&gt;" style="text;html=1;align=center;verticalAlign=middle;whiteSpace=wrap;rounded=0;" parent="1" vertex="1">
          <mxGeometry x="1106" y="310" width="60" height="30" as="geometry" />
        </mxCell>
        <mxCell id="mHPtdJQ6hgaOKIuCdoIB-194" value="&lt;font style=&quot;font-size: 14px;&quot; color=&quot;#009900&quot; face=&quot;Times New Roman&quot;&gt;+&lt;/font&gt;" style="text;html=1;align=center;verticalAlign=middle;whiteSpace=wrap;rounded=0;" parent="1" vertex="1">
          <mxGeometry x="1106" y="340" width="60" height="30" as="geometry" />
        </mxCell>
        <mxCell id="mHPtdJQ6hgaOKIuCdoIB-195" value="&lt;font style=&quot;font-size: 14px;&quot; color=&quot;#009900&quot; face=&quot;Times New Roman&quot;&gt;+&lt;/font&gt;" style="text;html=1;align=center;verticalAlign=middle;whiteSpace=wrap;rounded=0;" parent="1" vertex="1">
          <mxGeometry x="1106" y="380" width="60" height="30" as="geometry" />
        </mxCell>
        <mxCell id="mHPtdJQ6hgaOKIuCdoIB-196" value="&lt;font style=&quot;font-size: 14px;&quot; color=&quot;#009900&quot; face=&quot;Times New Roman&quot;&gt;+&lt;/font&gt;" style="text;html=1;align=center;verticalAlign=middle;whiteSpace=wrap;rounded=0;" parent="1" vertex="1">
          <mxGeometry x="1106" y="410" width="60" height="30" as="geometry" />
        </mxCell>
        <mxCell id="mHPtdJQ6hgaOKIuCdoIB-197" value="&lt;font style=&quot;font-size: 14px;&quot; color=&quot;#009900&quot; face=&quot;Times New Roman&quot;&gt;+&lt;/font&gt;" style="text;html=1;align=center;verticalAlign=middle;whiteSpace=wrap;rounded=0;" parent="1" vertex="1">
          <mxGeometry x="1106" y="440" width="60" height="30" as="geometry" />
        </mxCell>
        <mxCell id="mHPtdJQ6hgaOKIuCdoIB-198" value="&lt;font style=&quot;font-size: 14px;&quot; face=&quot;Times New Roman&quot; color=&quot;#009900&quot;&gt;Address(int, string, string, string,string, string): void&lt;/font&gt;" style="text;html=1;align=center;verticalAlign=middle;whiteSpace=wrap;rounded=0;fontColor=#c56516;" parent="1" vertex="1">
          <mxGeometry x="1116" y="475" width="260" height="30" as="geometry" />
        </mxCell>
        <mxCell id="L20pbjYPMxKReiNcHhZs-6" value="1" style="text;html=1;align=center;verticalAlign=middle;whiteSpace=wrap;rounded=0;" parent="1" vertex="1">
          <mxGeometry x="354" y="-170" width="60" height="30" as="geometry" />
        </mxCell>
        <mxCell id="_TIZ9fqZHh0trMwqWMUV-5" value="1" style="text;html=1;align=center;verticalAlign=middle;whiteSpace=wrap;rounded=0;" parent="1" vertex="1">
          <mxGeometry x="412.63" y="10" width="60" height="30" as="geometry" />
        </mxCell>
        <mxCell id="_TIZ9fqZHh0trMwqWMUV-8" value="1" style="text;html=1;align=center;verticalAlign=middle;whiteSpace=wrap;rounded=0;" parent="1" vertex="1">
          <mxGeometry x="884" y="30" width="60" height="30" as="geometry" />
        </mxCell>
        <mxCell id="3dHo6kwf9yd_WLhJWd4s-1" value="" style="endArrow=none;html=1;rounded=0;entryX=0.429;entryY=1.008;entryDx=0;entryDy=0;entryPerimeter=0;" parent="1" source="3dHo6kwf9yd_WLhJWd4s-2" target="mHPtdJQ6hgaOKIuCdoIB-148" edge="1">
          <mxGeometry width="50" height="50" relative="1" as="geometry">
            <mxPoint x="410" y="40" as="sourcePoint" />
            <mxPoint x="460" y="-10" as="targetPoint" />
          </mxGeometry>
        </mxCell>
        <mxCell id="3dHo6kwf9yd_WLhJWd4s-3" value="" style="endArrow=none;html=1;rounded=0;entryX=0.429;entryY=1.008;entryDx=0;entryDy=0;entryPerimeter=0;" parent="1" target="3dHo6kwf9yd_WLhJWd4s-2" edge="1">
          <mxGeometry width="50" height="50" relative="1" as="geometry">
            <mxPoint x="410" y="40" as="sourcePoint" />
            <mxPoint x="410" y="-168" as="targetPoint" />
          </mxGeometry>
        </mxCell>
        <mxCell id="3dHo6kwf9yd_WLhJWd4s-2" value="" style="rhombus;whiteSpace=wrap;html=1;fillColor=#eeeeee;strokeColor=#36393d;direction=west;" parent="1" vertex="1">
          <mxGeometry x="403" y="-170" width="20" height="40" as="geometry" />
        </mxCell>
        <mxCell id="3dHo6kwf9yd_WLhJWd4s-6" value="" style="rhombus;whiteSpace=wrap;html=1;fillColor=#eeeeee;strokeColor=#36393d;direction=south;" parent="1" vertex="1">
          <mxGeometry x="551.75" y="-210" width="40" height="20" as="geometry" />
        </mxCell>
        <mxCell id="3dHo6kwf9yd_WLhJWd4s-13" value="" style="endArrow=none;html=1;rounded=0;exitX=0.5;exitY=0;exitDx=0;exitDy=0;entryX=0.75;entryY=0;entryDx=0;entryDy=0;" parent="1" source="3dHo6kwf9yd_WLhJWd4s-6" target="mHPtdJQ6hgaOKIuCdoIB-127" edge="1">
          <mxGeometry width="50" height="50" relative="1" as="geometry">
            <mxPoint x="640" y="-190" as="sourcePoint" />
            <mxPoint x="690" y="-240" as="targetPoint" />
            <Array as="points">
              <mxPoint x="936" y="-200" />
            </Array>
          </mxGeometry>
        </mxCell>
        <mxCell id="3dHo6kwf9yd_WLhJWd4s-14" value="1" style="text;html=1;align=center;verticalAlign=middle;whiteSpace=wrap;rounded=0;" parent="1" vertex="1">
          <mxGeometry x="560" y="-240" width="60" height="30" as="geometry" />
        </mxCell>
        <mxCell id="3dHo6kwf9yd_WLhJWd4s-15" value="" style="rhombus;whiteSpace=wrap;html=1;fillColor=#eeeeee;strokeColor=#36393d;direction=south;" parent="1" vertex="1">
          <mxGeometry x="998" y="120" width="40" height="20" as="geometry" />
        </mxCell>
        <mxCell id="3dHo6kwf9yd_WLhJWd4s-18" value="" style="endArrow=none;html=1;rounded=0;exitX=0.5;exitY=0;exitDx=0;exitDy=0;entryX=0.016;entryY=0.17;entryDx=0;entryDy=0;entryPerimeter=0;" parent="1" source="3dHo6kwf9yd_WLhJWd4s-15" target="mHPtdJQ6hgaOKIuCdoIB-169" edge="1">
          <mxGeometry width="50" height="50" relative="1" as="geometry">
            <mxPoint x="1040" y="130" as="sourcePoint" />
            <mxPoint x="1090" y="80" as="targetPoint" />
          </mxGeometry>
        </mxCell>
        <mxCell id="3dHo6kwf9yd_WLhJWd4s-19" value="1" style="text;html=1;align=center;verticalAlign=middle;whiteSpace=wrap;rounded=0;" parent="1" vertex="1">
          <mxGeometry x="988" y="85" width="60" height="30" as="geometry" />
        </mxCell>
        <mxCell id="3dHo6kwf9yd_WLhJWd4s-20" value="1" style="text;html=1;align=center;verticalAlign=middle;whiteSpace=wrap;rounded=0;" parent="1" vertex="1">
          <mxGeometry x="1074" y="100" width="60" height="30" as="geometry" />
        </mxCell>
        <mxCell id="3dHo6kwf9yd_WLhJWd4s-21" value="" style="rhombus;whiteSpace=wrap;html=1;fillColor=#eeeeee;strokeColor=#36393d;" parent="1" vertex="1">
          <mxGeometry x="409" y="400" width="20" height="40" as="geometry" />
        </mxCell>
        <mxCell id="3dHo6kwf9yd_WLhJWd4s-22" value="" style="endArrow=none;html=1;rounded=0;exitX=0.5;exitY=0;exitDx=0;exitDy=0;entryX=0.5;entryY=1;entryDx=0;entryDy=0;" parent="1" source="mHPtdJQ6hgaOKIuCdoIB-85" target="3dHo6kwf9yd_WLhJWd4s-21" edge="1">
          <mxGeometry width="50" height="50" relative="1" as="geometry">
            <mxPoint x="458" y="490" as="sourcePoint" />
            <mxPoint x="460" y="460" as="targetPoint" />
          </mxGeometry>
        </mxCell>
        <mxCell id="3dHo6kwf9yd_WLhJWd4s-23" value="1" style="text;html=1;align=center;verticalAlign=middle;whiteSpace=wrap;rounded=0;" parent="1" vertex="1">
          <mxGeometry x="429" y="405" width="60" height="30" as="geometry" />
        </mxCell>
        <mxCell id="3dHo6kwf9yd_WLhJWd4s-24" value="1" style="text;html=1;align=center;verticalAlign=middle;whiteSpace=wrap;rounded=0;" parent="1" vertex="1">
          <mxGeometry x="404" y="475" width="60" height="30" as="geometry" />
        </mxCell>
        <mxCell id="3dHo6kwf9yd_WLhJWd4s-28" style="edgeStyle=orthogonalEdgeStyle;rounded=0;orthogonalLoop=1;jettySize=auto;html=1;exitX=0.5;exitY=1;exitDx=0;exitDy=0;entryX=0.455;entryY=1;entryDx=0;entryDy=0;entryPerimeter=0;dashed=1;" parent="1" source="mHPtdJQ6hgaOKIuCdoIB-127" target="mHPtdJQ6hgaOKIuCdoIB-80" edge="1">
          <mxGeometry relative="1" as="geometry">
            <Array as="points">
              <mxPoint x="874" y="760" />
              <mxPoint x="130" y="760" />
            </Array>
          </mxGeometry>
        </mxCell>
        <mxCell id="X7FAPLzMtyP_zXDKKmuG-21" style="edgeStyle=orthogonalEdgeStyle;rounded=0;orthogonalLoop=1;jettySize=auto;html=1;entryX=1;entryY=0.75;entryDx=0;entryDy=0;exitX=0.5;exitY=1;exitDx=0;exitDy=0;" parent="1" source="X7FAPLzMtyP_zXDKKmuG-22" target="mHPtdJQ6hgaOKIuCdoIB-107" edge="1">
          <mxGeometry relative="1" as="geometry">
            <mxPoint x="890" y="646" as="sourcePoint" />
          </mxGeometry>
        </mxCell>
        <mxCell id="X7FAPLzMtyP_zXDKKmuG-1" value="" style="rounded=1;whiteSpace=wrap;html=1;fillColor=#ffe6cc;strokeColor=#d79b00;" parent="1" vertex="1">
          <mxGeometry x="953.5" y="600" width="248" height="185" as="geometry" />
        </mxCell>
        <mxCell id="X7FAPLzMtyP_zXDKKmuG-2" value="&lt;font face=&quot;Times New Roman&quot;&gt;&lt;span style=&quot;font-size: 14px;&quot;&gt;_items: List&amp;lt;Item&amp;gt;&lt;/span&gt;&lt;/font&gt;" style="text;html=1;align=center;verticalAlign=middle;whiteSpace=wrap;rounded=0;fontColor=#c56516;fontStyle=0" parent="1" vertex="1">
          <mxGeometry x="964" y="635" width="139.5" height="30" as="geometry" />
        </mxCell>
        <mxCell id="X7FAPLzMtyP_zXDKKmuG-6" value="&lt;font color=&quot;#c56516&quot; style=&quot;font-size: 14px;&quot; face=&quot;Times New Roman&quot;&gt;-&lt;/font&gt;" style="text;html=1;align=center;verticalAlign=middle;whiteSpace=wrap;rounded=0;" parent="1" vertex="1">
          <mxGeometry x="938" y="635" width="60" height="30" as="geometry" />
        </mxCell>
        <mxCell id="X7FAPLzMtyP_zXDKKmuG-8" value="" style="endArrow=none;html=1;rounded=0;" parent="1" edge="1">
          <mxGeometry width="50" height="50" relative="1" as="geometry">
            <mxPoint x="953.5" y="633.5" as="sourcePoint" />
            <mxPoint x="1203.5" y="633" as="targetPoint" />
            <Array as="points">
              <mxPoint x="1203.5" y="633" />
            </Array>
          </mxGeometry>
        </mxCell>
        <mxCell id="X7FAPLzMtyP_zXDKKmuG-9" value="&lt;font face=&quot;Times New Roman&quot;&gt;&lt;span style=&quot;font-size: 20px;&quot;&gt;Cart&lt;/span&gt;&lt;/font&gt;" style="text;html=1;align=center;verticalAlign=middle;whiteSpace=wrap;rounded=0;" parent="1" vertex="1">
          <mxGeometry x="1047.5" y="605" width="60" height="30" as="geometry" />
        </mxCell>
        <mxCell id="X7FAPLzMtyP_zXDKKmuG-10" value="" style="endArrow=none;html=1;rounded=0;" parent="1" edge="1">
          <mxGeometry width="50" height="50" relative="1" as="geometry">
            <mxPoint x="953.5" y="680" as="sourcePoint" />
            <mxPoint x="1203.5" y="679.5" as="targetPoint" />
            <Array as="points">
              <mxPoint x="1203.5" y="679.5" />
            </Array>
          </mxGeometry>
        </mxCell>
        <mxCell id="X7FAPLzMtyP_zXDKKmuG-11" value="&lt;font color=&quot;#009900&quot; face=&quot;Times New Roman&quot; style=&quot;font-size: 14px;&quot;&gt;Amount {get;}(): double&lt;/font&gt;" style="text;html=1;align=center;verticalAlign=middle;whiteSpace=wrap;rounded=0;fontColor=#c56516;" parent="1" vertex="1">
          <mxGeometry x="964" y="725" width="196" height="30" as="geometry" />
        </mxCell>
        <mxCell id="X7FAPLzMtyP_zXDKKmuG-13" value="&lt;font style=&quot;font-size: 14px;&quot; color=&quot;#009900&quot; face=&quot;Times New Roman&quot;&gt;+&lt;/font&gt;" style="text;html=1;align=center;verticalAlign=middle;whiteSpace=wrap;rounded=0;" parent="1" vertex="1">
          <mxGeometry x="943.5" y="725" width="60" height="30" as="geometry" />
        </mxCell>
        <mxCell id="X7FAPLzMtyP_zXDKKmuG-15" value="&lt;font color=&quot;#009900&quot; face=&quot;Times New Roman&quot; style=&quot;font-size: 14px;&quot;&gt;Items{get; set;}(): List&amp;lt;Item&amp;gt;&lt;/font&gt;" style="text;html=1;align=center;verticalAlign=middle;whiteSpace=wrap;rounded=0;fontColor=#c56516;" parent="1" vertex="1">
          <mxGeometry x="989.1300000000001" y="695" width="176.75" height="30" as="geometry" />
        </mxCell>
        <mxCell id="X7FAPLzMtyP_zXDKKmuG-16" value="&lt;font style=&quot;font-size: 14px;&quot; color=&quot;#009900&quot; face=&quot;Times New Roman&quot;&gt;+&lt;/font&gt;" style="text;html=1;align=center;verticalAlign=middle;whiteSpace=wrap;rounded=0;" parent="1" vertex="1">
          <mxGeometry x="943.5" y="695" width="60" height="30" as="geometry" />
        </mxCell>
        <mxCell id="X7FAPLzMtyP_zXDKKmuG-17" value="&lt;font style=&quot;font-size: 14px;&quot; face=&quot;Times New Roman&quot; color=&quot;#009900&quot;&gt;Curt(): void&lt;/font&gt;" style="text;html=1;align=center;verticalAlign=middle;whiteSpace=wrap;rounded=0;fontColor=#c56516;" parent="1" vertex="1">
          <mxGeometry x="900" y="755" width="260" height="30" as="geometry" />
        </mxCell>
        <mxCell id="X7FAPLzMtyP_zXDKKmuG-22" value="" style="rhombus;whiteSpace=wrap;html=1;direction=south;" parent="1" vertex="1">
          <mxGeometry x="903.5" y="635" width="50" height="20" as="geometry" />
        </mxCell>
        <mxCell id="X7FAPLzMtyP_zXDKKmuG-24" value="1" style="text;html=1;align=center;verticalAlign=middle;whiteSpace=wrap;rounded=0;" parent="1" vertex="1">
          <mxGeometry x="893.5" y="600" width="60" height="30" as="geometry" />
        </mxCell>
        <mxCell id="X7FAPLzMtyP_zXDKKmuG-25" value="&lt;font style=&quot;font-size: 17px;&quot;&gt;n&lt;/font&gt;" style="text;html=1;align=center;verticalAlign=middle;whiteSpace=wrap;rounded=0;" parent="1" vertex="1">
          <mxGeometry x="539.5" y="340" width="60" height="30" as="geometry" />
        </mxCell>
        <mxCell id="X7FAPLzMtyP_zXDKKmuG-26" value="&lt;font style=&quot;font-size: 14px;&quot; color=&quot;#009900&quot; face=&quot;Times New Roman&quot;&gt;+&lt;/font&gt;" style="text;html=1;align=center;verticalAlign=middle;whiteSpace=wrap;rounded=0;" parent="1" vertex="1">
          <mxGeometry x="1098" y="470" width="60" height="30" as="geometry" />
        </mxCell>
        <mxCell id="X7FAPLzMtyP_zXDKKmuG-27" value="&lt;font style=&quot;font-size: 14px;&quot; color=&quot;#009900&quot; face=&quot;Times New Roman&quot;&gt;+&lt;/font&gt;" style="text;html=1;align=center;verticalAlign=middle;whiteSpace=wrap;rounded=0;" parent="1" vertex="1">
          <mxGeometry x="944" y="755" width="60" height="30" as="geometry" />
        </mxCell>
        <mxCell id="X7FAPLzMtyP_zXDKKmuG-28" value="&lt;font face=&quot;Times New Roman&quot; style=&quot;font-size: 14px;&quot;&gt;_cart: Cart&lt;/font&gt;" style="text;html=1;align=center;verticalAlign=middle;whiteSpace=wrap;rounded=0;fontColor=#c56516;" parent="1" vertex="1">
          <mxGeometry x="761.5" y="179" width="142.5" height="30" as="geometry" />
        </mxCell>
        <mxCell id="X7FAPLzMtyP_zXDKKmuG-29" value="&lt;font color=&quot;#c56516&quot; style=&quot;font-size: 14px;&quot; face=&quot;Times New Roman&quot;&gt;-&lt;/font&gt;" style="text;html=1;align=center;verticalAlign=middle;whiteSpace=wrap;rounded=0;" parent="1" vertex="1">
          <mxGeometry x="740" y="179" width="60" height="30" as="geometry" />
        </mxCell>
        <mxCell id="X7FAPLzMtyP_zXDKKmuG-30" value="&lt;font face=&quot;Times New Roman&quot; style=&quot;font-size: 14px;&quot;&gt;_orderList: List&amp;lt;Order&amp;gt;&lt;/font&gt;" style="text;html=1;align=center;verticalAlign=middle;whiteSpace=wrap;rounded=0;fontColor=#c56516;" parent="1" vertex="1">
          <mxGeometry x="801" y="209" width="142.5" height="30" as="geometry" />
        </mxCell>
        <mxCell id="X7FAPLzMtyP_zXDKKmuG-31" value="&lt;font color=&quot;#c56516&quot; style=&quot;font-size: 14px;&quot; face=&quot;Times New Roman&quot;&gt;-&lt;/font&gt;" style="text;html=1;align=center;verticalAlign=middle;whiteSpace=wrap;rounded=0;" parent="1" vertex="1">
          <mxGeometry x="740" y="209" width="60" height="30" as="geometry" />
        </mxCell>
        <mxCell id="X7FAPLzMtyP_zXDKKmuG-32" value="&lt;font color=&quot;#009900&quot; face=&quot;Times New Roman&quot; style=&quot;font-size: 14px;&quot;&gt;CustomerCart {get; set;}(): Cart&lt;/font&gt;" style="text;html=1;align=center;verticalAlign=middle;whiteSpace=wrap;rounded=0;fontColor=#c56516;" parent="1" vertex="1">
          <mxGeometry x="766" y="390" width="209" height="30" as="geometry" />
        </mxCell>
        <mxCell id="X7FAPLzMtyP_zXDKKmuG-33" value="&lt;font style=&quot;font-size: 14px;&quot; color=&quot;#009900&quot; face=&quot;Times New Roman&quot;&gt;+&lt;/font&gt;" style="text;html=1;align=center;verticalAlign=middle;whiteSpace=wrap;rounded=0;" parent="1" vertex="1">
          <mxGeometry x="732.75" y="390" width="60" height="30" as="geometry" />
        </mxCell>
        <mxCell id="X7FAPLzMtyP_zXDKKmuG-34" value="&lt;font color=&quot;#009900&quot; face=&quot;Times New Roman&quot; style=&quot;font-size: 14px;&quot;&gt;OrderList {get; set;}(): List&amp;lt;Order&amp;gt;&lt;/font&gt;" style="text;html=1;align=center;verticalAlign=middle;whiteSpace=wrap;rounded=0;fontColor=#c56516;" parent="1" vertex="1">
          <mxGeometry x="779" y="420" width="209" height="30" as="geometry" />
        </mxCell>
        <mxCell id="X7FAPLzMtyP_zXDKKmuG-35" value="&lt;font style=&quot;font-size: 14px;&quot; color=&quot;#009900&quot; face=&quot;Times New Roman&quot;&gt;+&lt;/font&gt;" style="text;html=1;align=center;verticalAlign=middle;whiteSpace=wrap;rounded=0;" parent="1" vertex="1">
          <mxGeometry x="732.75" y="420" width="60" height="30" as="geometry" />
        </mxCell>
        <mxCell id="X7FAPLzMtyP_zXDKKmuG-37" value="" style="rhombus;whiteSpace=wrap;html=1;fillColor=#eeeeee;strokeColor=#36393d;" parent="1" vertex="1">
          <mxGeometry x="938" y="520" width="20" height="40" as="geometry" />
        </mxCell>
        <mxCell id="X7FAPLzMtyP_zXDKKmuG-38" value="" style="endArrow=none;html=1;rounded=0;entryX=0.5;entryY=1;entryDx=0;entryDy=0;exitX=0.357;exitY=-0.02;exitDx=0;exitDy=0;exitPerimeter=0;" parent="1" source="X7FAPLzMtyP_zXDKKmuG-1" target="X7FAPLzMtyP_zXDKKmuG-37" edge="1">
          <mxGeometry width="50" height="50" relative="1" as="geometry">
            <mxPoint x="910" y="570" as="sourcePoint" />
            <mxPoint x="960" y="520" as="targetPoint" />
            <Array as="points" />
          </mxGeometry>
        </mxCell>
        <mxCell id="X7FAPLzMtyP_zXDKKmuG-39" value="1" style="text;html=1;align=center;verticalAlign=middle;whiteSpace=wrap;rounded=0;" parent="1" vertex="1">
          <mxGeometry x="943.5" y="520" width="60" height="30" as="geometry" />
        </mxCell>
        <mxCell id="X7FAPLzMtyP_zXDKKmuG-40" value="1" style="text;html=1;align=center;verticalAlign=middle;whiteSpace=wrap;rounded=0;" parent="1" vertex="1">
          <mxGeometry x="1030.25" y="565" width="60" height="30" as="geometry" />
        </mxCell>
        <mxCell id="X7FAPLzMtyP_zXDKKmuG-41" value="" style="rounded=1;whiteSpace=wrap;html=1;fillColor=#ffe6cc;strokeColor=#d79b00;" parent="1" vertex="1">
          <mxGeometry x="540.25" y="825" width="248" height="415" as="geometry" />
        </mxCell>
        <mxCell id="X7FAPLzMtyP_zXDKKmuG-42" value="&lt;font face=&quot;Times New Roman&quot; style=&quot;font-size: 14px;&quot;&gt;&lt;u&gt;_id: int&lt;/u&gt;&lt;/font&gt;" style="text;html=1;align=center;verticalAlign=middle;whiteSpace=wrap;rounded=0;fontColor=#c56516;" parent="1" vertex="1">
          <mxGeometry x="550.75" y="860" width="139.5" height="30" as="geometry" />
        </mxCell>
        <mxCell id="X7FAPLzMtyP_zXDKKmuG-44" value="&lt;font face=&quot;Times New Roman&quot; style=&quot;font-size: 14px;&quot;&gt;_deliveryAddress: Address&lt;/font&gt;" style="text;html=1;align=center;verticalAlign=middle;whiteSpace=wrap;rounded=0;fontColor=#c56516;" parent="1" vertex="1">
          <mxGeometry x="591.75" y="880" width="160" height="30" as="geometry" />
        </mxCell>
        <mxCell id="X7FAPLzMtyP_zXDKKmuG-45" value="&lt;font color=&quot;#c56516&quot; style=&quot;font-size: 14px;&quot; face=&quot;Times New Roman&quot;&gt;-&lt;/font&gt;" style="text;html=1;align=center;verticalAlign=middle;whiteSpace=wrap;rounded=0;" parent="1" vertex="1">
          <mxGeometry x="530.25" y="880" width="60" height="30" as="geometry" />
        </mxCell>
        <mxCell id="X7FAPLzMtyP_zXDKKmuG-46" value="&lt;font color=&quot;#c56516&quot; style=&quot;font-size: 14px;&quot; face=&quot;Times New Roman&quot;&gt;-&lt;/font&gt;" style="text;html=1;align=center;verticalAlign=middle;whiteSpace=wrap;rounded=0;" parent="1" vertex="1">
          <mxGeometry x="530.25" y="859" width="60" height="30" as="geometry" />
        </mxCell>
        <mxCell id="X7FAPLzMtyP_zXDKKmuG-47" value="&lt;font color=&quot;#c56516&quot; style=&quot;font-size: 14px;&quot; face=&quot;Times New Roman&quot;&gt;-&lt;/font&gt;" style="text;html=1;align=center;verticalAlign=middle;whiteSpace=wrap;rounded=0;" parent="1" vertex="1">
          <mxGeometry x="530.25" y="900" width="60" height="30" as="geometry" />
        </mxCell>
        <mxCell id="X7FAPLzMtyP_zXDKKmuG-48" value="" style="endArrow=none;html=1;rounded=0;" parent="1" edge="1">
          <mxGeometry width="50" height="50" relative="1" as="geometry">
            <mxPoint x="540.25" y="858.5" as="sourcePoint" />
            <mxPoint x="790.25" y="858" as="targetPoint" />
            <Array as="points">
              <mxPoint x="790.25" y="858" />
            </Array>
          </mxGeometry>
        </mxCell>
        <mxCell id="X7FAPLzMtyP_zXDKKmuG-49" value="&lt;font face=&quot;Times New Roman&quot;&gt;&lt;span style=&quot;font-size: 20px;&quot;&gt;Order&lt;/span&gt;&lt;/font&gt;" style="text;html=1;align=center;verticalAlign=middle;whiteSpace=wrap;rounded=0;" parent="1" vertex="1">
          <mxGeometry x="634.25" y="830" width="60" height="30" as="geometry" />
        </mxCell>
        <mxCell id="X7FAPLzMtyP_zXDKKmuG-50" value="" style="endArrow=none;html=1;rounded=0;" parent="1" edge="1">
          <mxGeometry width="50" height="50" relative="1" as="geometry">
            <mxPoint x="538.25" y="990.5" as="sourcePoint" />
            <mxPoint x="788.25" y="990" as="targetPoint" />
            <Array as="points">
              <mxPoint x="788.25" y="990" />
            </Array>
          </mxGeometry>
        </mxCell>
        <mxCell id="X7FAPLzMtyP_zXDKKmuG-51" value="&lt;font color=&quot;#009900&quot; face=&quot;Times New Roman&quot; style=&quot;font-size: 14px;&quot;&gt;CustomerFullName {get; set;}(): string&lt;/font&gt;" style="text;html=1;align=center;verticalAlign=middle;whiteSpace=wrap;rounded=0;fontColor=#c56516;" parent="1" vertex="1">
          <mxGeometry x="560" y="1140" width="210" height="30" as="geometry" />
        </mxCell>
        <mxCell id="X7FAPLzMtyP_zXDKKmuG-52" value="&lt;font color=&quot;#009900&quot; face=&quot;Times New Roman&quot; style=&quot;font-size: 14px;&quot;&gt;deliveryAddress {get; set;}(): Address&lt;/font&gt;" style="text;html=1;align=center;verticalAlign=middle;whiteSpace=wrap;rounded=0;fontColor=#c56516;" parent="1" vertex="1">
          <mxGeometry x="562" y="1020" width="219.5" height="30" as="geometry" />
        </mxCell>
        <mxCell id="X7FAPLzMtyP_zXDKKmuG-53" value="&lt;font style=&quot;font-size: 14px;&quot; color=&quot;#009900&quot; face=&quot;Times New Roman&quot;&gt;+&lt;/font&gt;" style="text;html=1;align=center;verticalAlign=middle;whiteSpace=wrap;rounded=0;" parent="1" vertex="1">
          <mxGeometry x="530.25" y="1050" width="60" height="30" as="geometry" />
        </mxCell>
        <mxCell id="X7FAPLzMtyP_zXDKKmuG-54" value="&lt;font style=&quot;font-size: 14px;&quot; color=&quot;#009900&quot; face=&quot;Times New Roman&quot;&gt;+&lt;/font&gt;" style="text;html=1;align=center;verticalAlign=middle;whiteSpace=wrap;rounded=0;" parent="1" vertex="1">
          <mxGeometry x="530.25" y="1080" width="60" height="30" as="geometry" />
        </mxCell>
        <mxCell id="X7FAPLzMtyP_zXDKKmuG-55" value="&lt;font color=&quot;#009900&quot; face=&quot;Times New Roman&quot; style=&quot;font-size: 14px;&quot;&gt;ID {get; set;}(): int&lt;/font&gt;" style="text;html=1;align=center;verticalAlign=middle;whiteSpace=wrap;rounded=0;fontColor=#c56516;" parent="1" vertex="1">
          <mxGeometry x="576" y="995" width="146" height="30" as="geometry" />
        </mxCell>
        <mxCell id="X7FAPLzMtyP_zXDKKmuG-56" value="&lt;font style=&quot;font-size: 14px;&quot; color=&quot;#009900&quot; face=&quot;Times New Roman&quot;&gt;+&lt;/font&gt;" style="text;html=1;align=center;verticalAlign=middle;whiteSpace=wrap;rounded=0;" parent="1" vertex="1">
          <mxGeometry x="530.25" y="995" width="60" height="30" as="geometry" />
        </mxCell>
        <mxCell id="X7FAPLzMtyP_zXDKKmuG-57" value="&lt;font style=&quot;font-size: 14px;&quot; face=&quot;Times New Roman&quot; color=&quot;#009900&quot;&gt;Order(List&amp;lt;Item&amp;gt;, Address, string,&amp;nbsp;&lt;/font&gt;&lt;div&gt;&lt;font style=&quot;font-size: 14px;&quot; face=&quot;Times New Roman&quot; color=&quot;#009900&quot;&gt;double): void&lt;/font&gt;&lt;/div&gt;" style="text;html=1;align=center;verticalAlign=middle;whiteSpace=wrap;rounded=0;fontColor=#c56516;" parent="1" vertex="1">
          <mxGeometry x="541" y="1210" width="260" height="30" as="geometry" />
        </mxCell>
        <mxCell id="X7FAPLzMtyP_zXDKKmuG-58" value="&lt;font style=&quot;font-size: 14px;&quot; color=&quot;#009900&quot; face=&quot;Times New Roman&quot;&gt;+&lt;/font&gt;" style="text;html=1;align=center;verticalAlign=middle;whiteSpace=wrap;rounded=0;" parent="1" vertex="1">
          <mxGeometry x="530.25" y="1200" width="60" height="30" as="geometry" />
        </mxCell>
        <mxCell id="X7FAPLzMtyP_zXDKKmuG-62" value="&lt;font face=&quot;Times New Roman&quot; style=&quot;font-size: 14px;&quot;&gt;&lt;u&gt;_orderData: DataTime&lt;/u&gt;&lt;/font&gt;" style="text;html=1;align=center;verticalAlign=middle;whiteSpace=wrap;rounded=0;fontColor=#c56516;" parent="1" vertex="1">
          <mxGeometry x="590.25" y="900" width="142.5" height="30" as="geometry" />
        </mxCell>
        <mxCell id="X7FAPLzMtyP_zXDKKmuG-63" value="&lt;font color=&quot;#c56516&quot; style=&quot;font-size: 14px;&quot; face=&quot;Times New Roman&quot;&gt;-&lt;/font&gt;" style="text;html=1;align=center;verticalAlign=middle;whiteSpace=wrap;rounded=0;" parent="1" vertex="1">
          <mxGeometry x="530.25" y="919" width="60" height="30" as="geometry" />
        </mxCell>
        <mxCell id="X7FAPLzMtyP_zXDKKmuG-65" value="&lt;font color=&quot;#c56516&quot; style=&quot;font-size: 14px;&quot; face=&quot;Times New Roman&quot;&gt;-&lt;/font&gt;" style="text;html=1;align=center;verticalAlign=middle;whiteSpace=wrap;rounded=0;" parent="1" vertex="1">
          <mxGeometry x="530.25" y="940" width="60" height="30" as="geometry" />
        </mxCell>
        <mxCell id="X7FAPLzMtyP_zXDKKmuG-66" value="&lt;font color=&quot;#009900&quot; face=&quot;Times New Roman&quot; style=&quot;font-size: 14px;&quot;&gt;OrderDate {get; set;}(): DataTime&lt;/font&gt;" style="text;html=1;align=center;verticalAlign=middle;whiteSpace=wrap;rounded=0;fontColor=#c56516;" parent="1" vertex="1">
          <mxGeometry x="562" y="1050" width="209" height="30" as="geometry" />
        </mxCell>
        <mxCell id="X7FAPLzMtyP_zXDKKmuG-67" value="&lt;font style=&quot;font-size: 14px;&quot; color=&quot;#009900&quot; face=&quot;Times New Roman&quot;&gt;+&lt;/font&gt;" style="text;html=1;align=center;verticalAlign=middle;whiteSpace=wrap;rounded=0;" parent="1" vertex="1">
          <mxGeometry x="530.25" y="1110" width="60" height="30" as="geometry" />
        </mxCell>
        <mxCell id="X7FAPLzMtyP_zXDKKmuG-68" value="&lt;font color=&quot;#009900&quot; face=&quot;Times New Roman&quot; style=&quot;font-size: 14px;&quot;&gt;Items {get; set;}(): List&amp;lt;Item&amp;gt;&lt;/font&gt;" style="text;html=1;align=center;verticalAlign=middle;whiteSpace=wrap;rounded=0;fontColor=#c56516;" parent="1" vertex="1">
          <mxGeometry x="557" y="1080" width="209" height="30" as="geometry" />
        </mxCell>
        <mxCell id="X7FAPLzMtyP_zXDKKmuG-69" value="&lt;font style=&quot;font-size: 14px;&quot; color=&quot;#009900&quot; face=&quot;Times New Roman&quot;&gt;+&lt;/font&gt;" style="text;html=1;align=center;verticalAlign=middle;whiteSpace=wrap;rounded=0;" parent="1" vertex="1">
          <mxGeometry x="531.75" y="1139" width="60" height="30" as="geometry" />
        </mxCell>
        <mxCell id="X7FAPLzMtyP_zXDKKmuG-71" value="&lt;font face=&quot;Times New Roman&quot; style=&quot;font-size: 14px;&quot;&gt;_items: List&amp;lt;Item&amp;gt;&lt;/font&gt;" style="text;html=1;align=center;verticalAlign=middle;whiteSpace=wrap;rounded=0;fontColor=#c56516;" parent="1" vertex="1">
          <mxGeometry x="580" y="919" width="142.5" height="30" as="geometry" />
        </mxCell>
        <mxCell id="X7FAPLzMtyP_zXDKKmuG-72" value="&lt;font face=&quot;Times New Roman&quot; style=&quot;font-size: 14px;&quot;&gt;_amountCost: double&lt;/font&gt;" style="text;html=1;align=center;verticalAlign=middle;whiteSpace=wrap;rounded=0;fontColor=#c56516;" parent="1" vertex="1">
          <mxGeometry x="580" y="940" width="160" height="30" as="geometry" />
        </mxCell>
        <mxCell id="X7FAPLzMtyP_zXDKKmuG-73" value="&lt;font face=&quot;Times New Roman&quot; style=&quot;font-size: 14px;&quot;&gt;_customerFullName: string&lt;/font&gt;" style="text;html=1;align=center;verticalAlign=middle;whiteSpace=wrap;rounded=0;fontColor=#c56516;" parent="1" vertex="1">
          <mxGeometry x="576" y="960" width="198.25" height="30" as="geometry" />
        </mxCell>
        <mxCell id="X7FAPLzMtyP_zXDKKmuG-74" value="&lt;font color=&quot;#c56516&quot; style=&quot;font-size: 14px;&quot; face=&quot;Times New Roman&quot;&gt;-&lt;/font&gt;" style="text;html=1;align=center;verticalAlign=middle;whiteSpace=wrap;rounded=0;" parent="1" vertex="1">
          <mxGeometry x="531.75" y="960" width="60" height="30" as="geometry" />
        </mxCell>
        <mxCell id="X7FAPLzMtyP_zXDKKmuG-75" value="&lt;font style=&quot;font-size: 14px;&quot; color=&quot;#009900&quot; face=&quot;Times New Roman&quot;&gt;+&lt;/font&gt;" style="text;html=1;align=center;verticalAlign=middle;whiteSpace=wrap;rounded=0;" parent="1" vertex="1">
          <mxGeometry x="530.25" y="1020" width="60" height="30" as="geometry" />
        </mxCell>
        <mxCell id="X7FAPLzMtyP_zXDKKmuG-76" value="&lt;font color=&quot;#009900&quot; face=&quot;Times New Roman&quot; style=&quot;font-size: 14px;&quot;&gt;OrderStatus {get; set;}(): OrderStatus&lt;/font&gt;" style="text;html=1;align=center;verticalAlign=middle;whiteSpace=wrap;rounded=0;fontColor=#c56516;" parent="1" vertex="1">
          <mxGeometry x="560.25" y="1109" width="221.25" height="30" as="geometry" />
        </mxCell>
        <mxCell id="X7FAPLzMtyP_zXDKKmuG-77" value="&lt;font color=&quot;#009900&quot; face=&quot;Times New Roman&quot; style=&quot;font-size: 14px;&quot;&gt;ItemsAmount {get; set;}(): double&lt;/font&gt;" style="text;html=1;align=center;verticalAlign=middle;whiteSpace=wrap;rounded=0;fontColor=#c56516;" parent="1" vertex="1">
          <mxGeometry x="559" y="1169" width="225.5" height="30" as="geometry" />
        </mxCell>
        <mxCell id="X7FAPLzMtyP_zXDKKmuG-78" value="&lt;font style=&quot;font-size: 14px;&quot; color=&quot;#009900&quot; face=&quot;Times New Roman&quot;&gt;+&lt;/font&gt;" style="text;html=1;align=center;verticalAlign=middle;whiteSpace=wrap;rounded=0;" parent="1" vertex="1">
          <mxGeometry x="534.25" y="1169" width="60" height="30" as="geometry" />
        </mxCell>
        <mxCell id="X7FAPLzMtyP_zXDKKmuG-79" value="" style="rounded=1;whiteSpace=wrap;html=1;fillColor=#d5e8d4;strokeColor=#82b366;" parent="1" vertex="1">
          <mxGeometry x="207.75" y="895" width="190" height="185" as="geometry" />
        </mxCell>
        <mxCell id="X7FAPLzMtyP_zXDKKmuG-80" value="" style="endArrow=none;html=1;rounded=0;" parent="1" target="X7FAPLzMtyP_zXDKKmuG-79" edge="1">
          <mxGeometry width="50" height="50" relative="1" as="geometry">
            <mxPoint x="207.75" y="950" as="sourcePoint" />
            <mxPoint x="257.75" y="900" as="targetPoint" />
            <Array as="points">
              <mxPoint x="397.75" y="950" />
            </Array>
          </mxGeometry>
        </mxCell>
        <mxCell id="X7FAPLzMtyP_zXDKKmuG-81" value="&lt;font style=&quot;font-weight: normal; font-size: 20px;&quot; face=&quot;Times New Roman&quot;&gt;&quot;enumeration&quot;&lt;/font&gt;&lt;div style=&quot;font-size: 20px;&quot;&gt;&lt;font face=&quot;Times New Roman&quot;&gt;&lt;span style=&quot;font-weight: 400;&quot;&gt;OrderStatus&lt;/span&gt;&lt;/font&gt;&lt;/div&gt;" style="text;html=1;align=center;verticalAlign=middle;whiteSpace=wrap;rounded=0;fontStyle=1;fontSize=15;" parent="1" vertex="1">
          <mxGeometry x="257.75" y="900" width="90" height="50" as="geometry" />
        </mxCell>
        <mxCell id="X7FAPLzMtyP_zXDKKmuG-82" value="&lt;div style=&quot;font-size: 14px;&quot;&gt;&lt;font color=&quot;#ffb570&quot; style=&quot;font-size: 14px;&quot;&gt;&amp;nbsp;New,&lt;/font&gt;&lt;/div&gt;&lt;div style=&quot;font-size: 14px;&quot;&gt;&lt;span style=&quot;background-color: initial;&quot;&gt;&lt;font color=&quot;#ffb570&quot; style=&quot;font-size: 14px;&quot;&gt;Processing,&lt;/font&gt;&lt;/span&gt;&lt;/div&gt;&lt;div style=&quot;font-size: 14px;&quot;&gt;&lt;font color=&quot;#ffb570&quot; style=&quot;font-size: 14px;&quot;&gt;&amp;nbsp;Assembly,&lt;/font&gt;&lt;/div&gt;&lt;div style=&quot;font-size: 14px;&quot;&gt;&lt;font color=&quot;#ffb570&quot; style=&quot;font-size: 14px;&quot;&gt;&amp;nbsp;Sent,&lt;/font&gt;&lt;/div&gt;&lt;div style=&quot;font-size: 14px;&quot;&gt;&lt;font color=&quot;#ffb570&quot; style=&quot;font-size: 14px;&quot;&gt;&amp;nbsp;Delivered,&lt;/font&gt;&lt;/div&gt;&lt;div style=&quot;font-size: 14px;&quot;&gt;&lt;font color=&quot;#ffb570&quot; style=&quot;font-size: 14px;&quot;&gt;&amp;nbsp;Returned,&lt;/font&gt;&lt;/div&gt;&lt;div style=&quot;font-size: 14px;&quot;&gt;&lt;font color=&quot;#ffb570&quot; style=&quot;font-size: 14px;&quot;&gt;&amp;nbsp;Abandoned&lt;/font&gt;&lt;/div&gt;" style="text;html=1;align=center;verticalAlign=middle;whiteSpace=wrap;rounded=0;" parent="1" vertex="1">
          <mxGeometry x="207.75" y="960" width="190" height="120" as="geometry" />
        </mxCell>
        <mxCell id="X7FAPLzMtyP_zXDKKmuG-84" value="" style="rhombus;whiteSpace=wrap;html=1;fillColor=#eeeeee;strokeColor=#36393d;direction=south;" parent="1" vertex="1">
          <mxGeometry x="499.5" y="960" width="40" height="20" as="geometry" />
        </mxCell>
        <mxCell id="X7FAPLzMtyP_zXDKKmuG-85" value="" style="endArrow=none;html=1;rounded=0;entryX=0.5;entryY=0.987;entryDx=0;entryDy=0;entryPerimeter=0;exitX=1.007;exitY=0.092;exitDx=0;exitDy=0;exitPerimeter=0;" parent="1" source="X7FAPLzMtyP_zXDKKmuG-82" target="X7FAPLzMtyP_zXDKKmuG-84" edge="1">
          <mxGeometry width="50" height="50" relative="1" as="geometry">
            <mxPoint x="440" y="1020" as="sourcePoint" />
            <mxPoint x="490" y="970" as="targetPoint" />
          </mxGeometry>
        </mxCell>
        <mxCell id="X7FAPLzMtyP_zXDKKmuG-86" value="1" style="text;html=1;align=center;verticalAlign=middle;whiteSpace=wrap;rounded=0;" parent="1" vertex="1">
          <mxGeometry x="489" y="930" width="60" height="30" as="geometry" />
        </mxCell>
        <mxCell id="X7FAPLzMtyP_zXDKKmuG-87" value="1" style="text;html=1;align=center;verticalAlign=middle;whiteSpace=wrap;rounded=0;" parent="1" vertex="1">
          <mxGeometry x="378" y="940" width="60" height="30" as="geometry" />
        </mxCell>
        <mxCell id="X7FAPLzMtyP_zXDKKmuG-88" value="" style="rhombus;whiteSpace=wrap;html=1;fillColor=#eeeeee;strokeColor=#36393d;" parent="1" vertex="1">
          <mxGeometry x="784.5" y="520" width="20" height="40" as="geometry" />
        </mxCell>
        <mxCell id="X7FAPLzMtyP_zXDKKmuG-89" value="" style="endArrow=none;html=1;rounded=0;entryX=0.5;entryY=1;entryDx=0;entryDy=0;exitX=0.592;exitY=-0.002;exitDx=0;exitDy=0;exitPerimeter=0;" parent="1" source="X7FAPLzMtyP_zXDKKmuG-41" target="X7FAPLzMtyP_zXDKKmuG-88" edge="1">
          <mxGeometry width="50" height="50" relative="1" as="geometry">
            <mxPoint x="760" y="630" as="sourcePoint" />
            <mxPoint x="810" y="580" as="targetPoint" />
          </mxGeometry>
        </mxCell>
        <mxCell id="X7FAPLzMtyP_zXDKKmuG-90" value="1" style="text;html=1;align=center;verticalAlign=middle;whiteSpace=wrap;rounded=0;" parent="1" vertex="1">
          <mxGeometry x="784" y="535" width="60" height="30" as="geometry" />
        </mxCell>
        <mxCell id="X7FAPLzMtyP_zXDKKmuG-91" value="&lt;font style=&quot;font-size: 17px;&quot;&gt;n&lt;/font&gt;" style="text;html=1;align=center;verticalAlign=middle;whiteSpace=wrap;rounded=0;" parent="1" vertex="1">
          <mxGeometry x="630.25" y="800" width="60" height="30" as="geometry" />
        </mxCell>
        <mxCell id="X7FAPLzMtyP_zXDKKmuG-92" value="" style="rhombus;whiteSpace=wrap;html=1;direction=west;" parent="1" vertex="1">
          <mxGeometry x="574.25" y="775" width="20" height="50" as="geometry" />
        </mxCell>
        <mxCell id="X7FAPLzMtyP_zXDKKmuG-95" style="edgeStyle=orthogonalEdgeStyle;rounded=0;orthogonalLoop=1;jettySize=auto;html=1;exitX=0.5;exitY=1;exitDx=0;exitDy=0;entryX=0.883;entryY=0.998;entryDx=0;entryDy=0;entryPerimeter=0;" parent="1" source="X7FAPLzMtyP_zXDKKmuG-92" target="mHPtdJQ6hgaOKIuCdoIB-89" edge="1">
          <mxGeometry relative="1" as="geometry">
            <Array as="points">
              <mxPoint x="584" y="399" />
            </Array>
          </mxGeometry>
        </mxCell>
        <mxCell id="X7FAPLzMtyP_zXDKKmuG-96" value="1" style="text;html=1;align=center;verticalAlign=middle;whiteSpace=wrap;rounded=0;" parent="1" vertex="1">
          <mxGeometry x="520" y="785" width="60" height="30" as="geometry" />
        </mxCell>
        <mxCell id="X7FAPLzMtyP_zXDKKmuG-97" value="&lt;font style=&quot;font-size: 17px;&quot;&gt;n&lt;/font&gt;" style="text;html=1;align=center;verticalAlign=middle;whiteSpace=wrap;rounded=0;" parent="1" vertex="1">
          <mxGeometry x="494.63" y="410" width="60" height="30" as="geometry" />
        </mxCell>
        <mxCell id="P3nhLdI0Mp9I1ETAEQgd-1" value="&lt;font color=&quot;#c56516&quot; style=&quot;font-size: 14px;&quot; face=&quot;Times New Roman&quot;&gt;-&lt;/font&gt;" style="text;html=1;align=center;verticalAlign=middle;whiteSpace=wrap;rounded=0;" vertex="1" parent="1">
          <mxGeometry x="740" y="235" width="60" height="30" as="geometry" />
        </mxCell>
        <mxCell id="P3nhLdI0Mp9I1ETAEQgd-3" value="&lt;font face=&quot;Times New Roman&quot; style=&quot;font-size: 14px;&quot;&gt;_isPriority: bool&lt;/font&gt;" style="text;html=1;align=center;verticalAlign=middle;whiteSpace=wrap;rounded=0;fontColor=#c56516;" vertex="1" parent="1">
          <mxGeometry x="779" y="239" width="142.5" height="30" as="geometry" />
        </mxCell>
        <mxCell id="P3nhLdI0Mp9I1ETAEQgd-4" value="&lt;font style=&quot;font-size: 14px;&quot; color=&quot;#009900&quot; face=&quot;Times New Roman&quot;&gt;+&lt;/font&gt;" style="text;html=1;align=center;verticalAlign=middle;whiteSpace=wrap;rounded=0;" vertex="1" parent="1">
          <mxGeometry x="732.75" y="475" width="60" height="30" as="geometry" />
        </mxCell>
        <mxCell id="P3nhLdI0Mp9I1ETAEQgd-5" value="&lt;font color=&quot;#009900&quot; face=&quot;Times New Roman&quot; style=&quot;font-size: 14px;&quot;&gt;IsPriority {get; set;}(): bool&lt;/font&gt;" style="text;html=1;align=center;verticalAlign=middle;whiteSpace=wrap;rounded=0;fontColor=#c56516;" vertex="1" parent="1">
          <mxGeometry x="755" y="450" width="209" height="30" as="geometry" />
        </mxCell>
        <mxCell id="P3nhLdI0Mp9I1ETAEQgd-6" value="" style="rounded=1;whiteSpace=wrap;html=1;fillColor=#d5e8d4;strokeColor=#82b366;" vertex="1" parent="1">
          <mxGeometry x="1265.5" y="865" width="190" height="185" as="geometry" />
        </mxCell>
        <mxCell id="P3nhLdI0Mp9I1ETAEQgd-7" value="" style="endArrow=none;html=1;rounded=0;" edge="1" parent="1" target="P3nhLdI0Mp9I1ETAEQgd-6">
          <mxGeometry width="50" height="50" relative="1" as="geometry">
            <mxPoint x="1265.5" y="920" as="sourcePoint" />
            <mxPoint x="1315.5" y="870" as="targetPoint" />
            <Array as="points">
              <mxPoint x="1455.5" y="920" />
            </Array>
          </mxGeometry>
        </mxCell>
        <mxCell id="P3nhLdI0Mp9I1ETAEQgd-8" value="&lt;font style=&quot;font-weight: normal; font-size: 20px;&quot; face=&quot;Times New Roman&quot;&gt;&quot;enumeration&quot;&lt;/font&gt;&lt;div style=&quot;font-size: 20px;&quot;&gt;&lt;span style=&quot;font-weight: normal;&quot;&gt;DeliveryTime&lt;/span&gt;&lt;/div&gt;" style="text;html=1;align=center;verticalAlign=middle;whiteSpace=wrap;rounded=0;fontStyle=1;fontSize=15;" vertex="1" parent="1">
          <mxGeometry x="1315.5" y="870" width="90" height="50" as="geometry" />
        </mxCell>
        <mxCell id="P3nhLdI0Mp9I1ETAEQgd-9" value="&lt;div style=&quot;font-size: 14px;&quot;&gt;&lt;font color=&quot;#ffb570&quot; style=&quot;font-size: 14px;&quot;&gt;&amp;nbsp;Morning,&lt;/font&gt;&lt;/div&gt;&lt;div style=&quot;font-size: 14px;&quot;&gt;&lt;span style=&quot;background-color: initial;&quot;&gt;&lt;font color=&quot;#ffb570&quot; style=&quot;font-size: 14px;&quot;&gt;Lunch,&lt;/font&gt;&lt;/span&gt;&lt;/div&gt;&lt;div style=&quot;font-size: 14px;&quot;&gt;&lt;font color=&quot;#ffb570&quot; style=&quot;font-size: 14px;&quot;&gt;&amp;nbsp;Afternoon,&lt;/font&gt;&lt;/div&gt;&lt;div style=&quot;font-size: 14px;&quot;&gt;&lt;font color=&quot;#ffb570&quot; style=&quot;font-size: 14px;&quot;&gt;&amp;nbsp;Evening,&lt;/font&gt;&lt;/div&gt;&lt;div style=&quot;font-size: 14px;&quot;&gt;&lt;font color=&quot;#ffb570&quot; style=&quot;font-size: 14px;&quot;&gt;&amp;nbsp;LateEvening,&lt;/font&gt;&lt;/div&gt;&lt;div style=&quot;font-size: 14px;&quot;&gt;&lt;font color=&quot;#ffb570&quot; style=&quot;font-size: 14px;&quot;&gt;&amp;nbsp;Night,&lt;/font&gt;&lt;/div&gt;" style="text;html=1;align=center;verticalAlign=middle;whiteSpace=wrap;rounded=0;" vertex="1" parent="1">
          <mxGeometry x="1265.5" y="930" width="190" height="120" as="geometry" />
        </mxCell>
        <mxCell id="P3nhLdI0Mp9I1ETAEQgd-10" value="1" style="text;html=1;align=center;verticalAlign=middle;whiteSpace=wrap;rounded=0;" vertex="1" parent="1">
          <mxGeometry x="1435.75" y="910" width="60" height="30" as="geometry" />
        </mxCell>
        <mxCell id="P3nhLdI0Mp9I1ETAEQgd-41" value="" style="rounded=1;whiteSpace=wrap;html=1;fillColor=#ffe6cc;strokeColor=#d79b00;" vertex="1" parent="1">
          <mxGeometry x="922" y="850" width="248" height="260" as="geometry" />
        </mxCell>
        <mxCell id="P3nhLdI0Mp9I1ETAEQgd-42" value="&lt;font face=&quot;Times New Roman&quot;&gt;&lt;span style=&quot;font-size: 20px;&quot;&gt;PriorityOrder&lt;/span&gt;&lt;/font&gt;" style="text;html=1;align=center;verticalAlign=middle;whiteSpace=wrap;rounded=0;" vertex="1" parent="1">
          <mxGeometry x="1016" y="855" width="60" height="30" as="geometry" />
        </mxCell>
        <mxCell id="P3nhLdI0Mp9I1ETAEQgd-43" value="" style="endArrow=none;html=1;rounded=0;" edge="1" parent="1">
          <mxGeometry width="50" height="50" relative="1" as="geometry">
            <mxPoint x="922" y="885.5" as="sourcePoint" />
            <mxPoint x="1172" y="885" as="targetPoint" />
            <Array as="points">
              <mxPoint x="1172" y="885" />
            </Array>
          </mxGeometry>
        </mxCell>
        <mxCell id="P3nhLdI0Mp9I1ETAEQgd-44" value="&lt;font face=&quot;Times New Roman&quot; style=&quot;font-size: 14px;&quot;&gt;_desiredDeliveryTime: DeliveryTime&lt;/font&gt;" style="text;html=1;align=center;verticalAlign=middle;whiteSpace=wrap;rounded=0;fontColor=#c56516;" vertex="1" parent="1">
          <mxGeometry x="942.25" y="890" width="214.5" height="30" as="geometry" />
        </mxCell>
        <mxCell id="P3nhLdI0Mp9I1ETAEQgd-50" value="&lt;font color=&quot;#c56516&quot; style=&quot;font-size: 14px;&quot; face=&quot;Times New Roman&quot;&gt;-&lt;/font&gt;" style="text;html=1;align=center;verticalAlign=middle;whiteSpace=wrap;rounded=0;" vertex="1" parent="1">
          <mxGeometry x="904" y="889" width="60" height="30" as="geometry" />
        </mxCell>
        <mxCell id="P3nhLdI0Mp9I1ETAEQgd-56" value="" style="endArrow=none;html=1;rounded=0;" edge="1" parent="1">
          <mxGeometry width="50" height="50" relative="1" as="geometry">
            <mxPoint x="919.5" y="929.5" as="sourcePoint" />
            <mxPoint x="1169.5" y="929" as="targetPoint" />
            <Array as="points">
              <mxPoint x="1169.5" y="929" />
            </Array>
          </mxGeometry>
        </mxCell>
        <mxCell id="P3nhLdI0Mp9I1ETAEQgd-61" value="&lt;font color=&quot;#009900&quot; face=&quot;Times New Roman&quot; style=&quot;font-size: 14px;&quot;&gt;DesiredDeliveryDate {get; set;}(): DateTime&lt;/font&gt;" style="text;html=1;align=center;verticalAlign=middle;whiteSpace=wrap;rounded=0;fontColor=#c56516;" vertex="1" parent="1">
          <mxGeometry x="945.5" y="942.5" width="212.5" height="30" as="geometry" />
        </mxCell>
        <mxCell id="P3nhLdI0Mp9I1ETAEQgd-62" value="&lt;font color=&quot;#009900&quot; face=&quot;Times New Roman&quot; style=&quot;font-size: 14px;&quot;&gt;DesiredDeliveryTime {get; set;}(): DeliveryTime&lt;/font&gt;" style="text;html=1;align=center;verticalAlign=middle;whiteSpace=wrap;rounded=0;fontColor=#c56516;" vertex="1" parent="1">
          <mxGeometry x="948.25" y="987.5" width="202.5" height="30" as="geometry" />
        </mxCell>
        <mxCell id="P3nhLdI0Mp9I1ETAEQgd-67" value="&lt;font style=&quot;font-size: 14px;&quot; color=&quot;#009900&quot; face=&quot;Times New Roman&quot;&gt;+&lt;/font&gt;" style="text;html=1;align=center;verticalAlign=middle;whiteSpace=wrap;rounded=0;" vertex="1" parent="1">
          <mxGeometry x="903.5" y="975" width="60" height="30" as="geometry" />
        </mxCell>
        <mxCell id="P3nhLdI0Mp9I1ETAEQgd-68" value="&lt;font style=&quot;font-size: 14px;&quot; color=&quot;#009900&quot; face=&quot;Times New Roman&quot;&gt;+&lt;/font&gt;" style="text;html=1;align=center;verticalAlign=middle;whiteSpace=wrap;rounded=0;" vertex="1" parent="1">
          <mxGeometry x="904" y="930" width="60" height="30" as="geometry" />
        </mxCell>
        <mxCell id="P3nhLdI0Mp9I1ETAEQgd-69" value="&lt;font style=&quot;font-size: 14px;&quot; face=&quot;Times New Roman&quot; color=&quot;#009900&quot;&gt;Address(&lt;/font&gt;&lt;font style=&quot;font-size: 14px;&quot; face=&quot;Times New Roman&quot; color=&quot;#009900&quot;&gt;List&amp;lt;Item&amp;gt;, Address, string,&amp;nbsp;&lt;br&gt;&lt;/font&gt;&lt;span style=&quot;font-size: 14px; color: rgb(0, 153, 0); font-family: &amp;quot;Times New Roman&amp;quot;; background-color: initial;&quot;&gt;double, DateTime, DeliveryTime&lt;/span&gt;&lt;font style=&quot;font-size: 14px;&quot; face=&quot;Times New Roman&quot; color=&quot;#009900&quot;&gt;): void&lt;/font&gt;" style="text;html=1;align=center;verticalAlign=middle;whiteSpace=wrap;rounded=0;fontColor=#c56516;" vertex="1" parent="1">
          <mxGeometry x="925" y="1040" width="260" height="30" as="geometry" />
        </mxCell>
        <mxCell id="P3nhLdI0Mp9I1ETAEQgd-70" value="&lt;font style=&quot;font-size: 14px;&quot; color=&quot;#009900&quot; face=&quot;Times New Roman&quot;&gt;+&lt;/font&gt;" style="text;html=1;align=center;verticalAlign=middle;whiteSpace=wrap;rounded=0;" vertex="1" parent="1">
          <mxGeometry x="903.5" y="1030" width="60" height="30" as="geometry" />
        </mxCell>
        <mxCell id="P3nhLdI0Mp9I1ETAEQgd-71" value="" style="rhombus;whiteSpace=wrap;html=1;fillColor=#eeeeee;strokeColor=#36393d;direction=south;" vertex="1" parent="1">
          <mxGeometry x="1170" y="950" width="40" height="20" as="geometry" />
        </mxCell>
        <mxCell id="P3nhLdI0Mp9I1ETAEQgd-73" value="" style="endArrow=none;html=1;rounded=0;exitX=0.5;exitY=0;exitDx=0;exitDy=0;entryX=0;entryY=0.25;entryDx=0;entryDy=0;" edge="1" parent="1" source="P3nhLdI0Mp9I1ETAEQgd-71" target="P3nhLdI0Mp9I1ETAEQgd-9">
          <mxGeometry width="50" height="50" relative="1" as="geometry">
            <mxPoint x="1200" y="950" as="sourcePoint" />
            <mxPoint x="1250" y="900" as="targetPoint" />
          </mxGeometry>
        </mxCell>
        <mxCell id="P3nhLdI0Mp9I1ETAEQgd-74" value="1" style="text;html=1;align=center;verticalAlign=middle;whiteSpace=wrap;rounded=0;" vertex="1" parent="1">
          <mxGeometry x="1230" y="930" width="60" height="30" as="geometry" />
        </mxCell>
        <mxCell id="P3nhLdI0Mp9I1ETAEQgd-75" value="1" style="text;html=1;align=center;verticalAlign=middle;whiteSpace=wrap;rounded=0;" vertex="1" parent="1">
          <mxGeometry x="1151" y="920" width="60" height="30" as="geometry" />
        </mxCell>
        <mxCell id="P3nhLdI0Mp9I1ETAEQgd-77" value="" style="triangle;whiteSpace=wrap;html=1;direction=west;" vertex="1" parent="1">
          <mxGeometry x="788.25" y="970" width="20" height="20" as="geometry" />
        </mxCell>
        <mxCell id="P3nhLdI0Mp9I1ETAEQgd-78" value="" style="endArrow=none;html=1;rounded=0;exitX=0;exitY=0.5;exitDx=0;exitDy=0;entryX=0;entryY=0.5;entryDx=0;entryDy=0;" edge="1" parent="1" source="P3nhLdI0Mp9I1ETAEQgd-77" target="P3nhLdI0Mp9I1ETAEQgd-41">
          <mxGeometry width="50" height="50" relative="1" as="geometry">
            <mxPoint x="850" y="980" as="sourcePoint" />
            <mxPoint x="860" y="975" as="targetPoint" />
          </mxGeometry>
        </mxCell>
      </root>
    </mxGraphModel>
  </diagram>
</mxfile>
